<?xml version="1.0" encoding="UTF-8"?>
<svg version="1.1" xmlns="http://www.w3.org/2000/svg" width="64" height="64">
<path d="M0 0 C21.12 0 42.24 0 64 0 C64 21.12 64 42.24 64 64 C42.88 64 21.76 64 0 64 C0 42.88 0 21.76 0 0 Z " fill="#FEFEFE" transform="translate(0,0)"/>
<path d="M0 0 C4.51674998 0.79012018 6.41774815 3.98332778 9.2109375 7.43359375 C10.06594849 8.4556189 10.06594849 8.4556189 10.93823242 9.49829102 C15.02134902 14.40605643 18.99112742 19.39948504 22.8359375 24.49609375 C22.8359375 19.21609375 22.8359375 13.93609375 22.8359375 8.49609375 C20.5259375 10.14609375 18.2159375 11.79609375 15.8359375 13.49609375 C16.77955151 9.72163772 17.73845813 7.87117029 19.8984375 4.74609375 C20.44628906 3.946875 20.99414062 3.14765625 21.55859375 2.32421875 C21.98011719 1.7209375 22.40164062 1.11765625 22.8359375 0.49609375 C27.7109375 1.37109375 27.7109375 1.37109375 28.8359375 2.49609375 C29.090093 7.136247 29.02116548 11.78730681 29.0234375 16.43359375 C29.03568359 17.74779297 29.04792969 19.06199219 29.06054688 20.41601562 C29.06248047 21.66833984 29.06441406 22.92066406 29.06640625 24.2109375 C29.07051514 25.367146 29.07462402 26.52335449 29.07885742 27.71459961 C28.8359375 30.49609375 28.8359375 30.49609375 26.8359375 32.49609375 C23.58940617 32.3563424 22.13796555 31.76395074 19.6953125 29.59765625 C18.99921875 28.78039062 18.303125 27.963125 17.5859375 27.12109375 C16.81765625 26.22777344 16.049375 25.33445312 15.2578125 24.4140625 C12.01507232 20.50708361 8.77667396 16.59808177 5.5859375 12.6484375 C4.01416212 10.6401319 4.01416212 10.6401319 2.8359375 9.49609375 C2.8359375 14.44609375 2.8359375 19.39609375 2.8359375 24.49609375 C4.4859375 22.84609375 6.1359375 21.19609375 7.8359375 19.49609375 C8.4959375 19.49609375 9.1559375 19.49609375 9.8359375 19.49609375 C8.24550371 24.58548186 5.0912424 28.37066018 1.8359375 32.49609375 C0.1859375 32.16609375 -1.4640625 31.83609375 -3.1640625 31.49609375 C-3.18871872 27.24194752 -3.20690149 22.98783877 -3.21899414 18.73364258 C-3.22403351 17.28539302 -3.23086503 15.83714858 -3.23950195 14.38891602 C-3.25158497 12.31134787 -3.25729461 10.23384678 -3.26171875 8.15625 C-3.26695557 6.90465088 -3.27219238 5.65305176 -3.27758789 4.36352539 C-3.13326768 0.71827616 -3.13326768 0.71827616 0 0 Z " fill="#030303" transform="translate(19.1640625,15.50390625)"/>
</svg>
