<?xml version="1.0" encoding="UTF-8"?>
<svg version="1.1" xmlns="http://www.w3.org/2000/svg" width="192" height="192">
<path d="M0 0 C20.74214802 16.36295874 35.24768955 37.80942542 39.08984375 64.4375 C41.23429433 94.7507401 35.20654084 119.85377198 15.19946289 143.1015625 C-0.24141956 160.40289245 -22.66162943 173.00505778 -46.06445312 174.66064453 C-76.91659688 175.69954325 -101.60641605 169.19525544 -124.59375 147.79467773 C-141.14677537 131.75067991 -152.46398239 109.15993104 -153.24609375 85.93359375 C-153.63659358 55.62397823 -146.33434962 31.45758762 -124.84375 9.28515625 C-91.79128842 -23.47863754 -37.48370416 -27.42936077 0 0 Z " fill="#FCA20D" transform="translate(152.91015625,17.5625)"/>
<path d="M0 0 C20.74214802 16.36295874 35.24768955 37.80942542 39.08984375 64.4375 C41.23429433 94.7507401 35.20654084 119.85377198 15.19946289 143.1015625 C-0.24141956 160.40289245 -22.66162943 173.00505778 -46.06445312 174.66064453 C-76.91659688 175.69954325 -101.60641605 169.19525544 -124.59375 147.79467773 C-141.14677537 131.75067991 -152.46398239 109.15993104 -153.24609375 85.93359375 C-153.63659358 55.62397823 -146.33434962 31.45758762 -124.84375 9.28515625 C-91.79128842 -23.47863754 -37.48370416 -27.42936077 0 0 Z M-119.91015625 11.4375 C-126.84362607 22.28988755 -124.39539763 39.02312397 -122.91015625 51.4375 C-122.29423667 53.12357986 -121.62840116 54.79240229 -120.91015625 56.4375 C-120.33690584 58.53328246 -119.79573184 60.6380737 -119.28515625 62.75 C-119.02476563 63.81863281 -118.764375 64.88726562 -118.49609375 65.98828125 C-118.30273438 66.79652344 -118.109375 67.60476562 -117.91015625 68.4375 C-117.25015625 68.4375 -116.59015625 68.4375 -115.91015625 68.4375 C-116.57015625 72.3975 -117.23015625 76.3575 -117.91015625 80.4375 C-118.57015625 80.4375 -119.23015625 80.4375 -119.91015625 80.4375 C-120.56119776 82.79033375 -121.20607747 85.14458449 -121.84765625 87.5 C-122.03005859 88.15677734 -122.21246094 88.81355469 -122.40039062 89.49023438 C-125.1410057 99.60559546 -128.01159579 113.91021028 -122.66015625 123.5625 C-121.77239073 124.87419849 -120.85786874 126.16843673 -119.91015625 127.4375 C-119.25015625 128.51 -118.59015625 129.5825 -117.91015625 130.6875 C-114.22246346 136.03230157 -114.22246346 136.03230157 -108.72265625 138.9375 C-108.12453125 139.1025 -107.52640625 139.2675 -106.91015625 139.4375 C-106.60078125 140.22125 -106.29140625 141.005 -105.97265625 141.8125 C-104.61930093 145.15608372 -103.1115491 145.9168384 -99.91015625 147.4375 C-99.25015625 147.4375 -98.59015625 147.4375 -97.91015625 147.4375 C-97.91015625 148.0975 -97.91015625 148.7575 -97.91015625 149.4375 C-97.11351563 149.83582031 -96.316875 150.23414063 -95.49609375 150.64453125 C-85.91015625 155.4375 -85.91015625 155.4375 -82.91796875 157.00390625 C-79.79138353 158.49410986 -76.72384427 159.56050386 -73.41015625 160.5625 C-72.32734375 160.89507812 -71.24453125 161.22765625 -70.12890625 161.5703125 C-65.64104886 162.77941971 -61.25034139 163.58118941 -56.59765625 163.625 C-55.92089844 163.63917969 -55.24414062 163.65335938 -54.546875 163.66796875 C-42.0921101 162.57933004 -26.84251931 158.36954134 -17.5390625 149.85546875 C-15.91015625 148.4375 -15.91015625 148.4375 -12.91015625 147.4375 C-12.91015625 146.7775 -12.91015625 146.1175 -12.91015625 145.4375 C-11.59015625 145.1075 -10.27015625 144.7775 -8.91015625 144.4375 C-8.91015625 143.7775 -8.91015625 143.1175 -8.91015625 142.4375 C-7.79640625 142.0971875 -7.79640625 142.0971875 -6.66015625 141.75 C-3.36758155 140.1785439 -1.93518516 138.43754284 0.08984375 135.4375 C0.08984375 134.7775 0.08984375 134.1175 0.08984375 133.4375 C0.70730469 133.18355469 1.32476562 132.92960937 1.9609375 132.66796875 C4.42242511 131.24527408 4.99371525 130.30299526 6.15234375 127.75 C6.45269531 127.10675781 6.75304687 126.46351563 7.0625 125.80078125 C7.57103516 124.63095703 7.57103516 124.63095703 8.08984375 123.4375 C8.62867188 122.39851563 9.1675 121.35953125 9.72265625 120.2890625 C11.67099671 115.71312677 11.26423551 111.37274461 10.90234375 106.5 C10.85787109 105.64470703 10.81339844 104.78941406 10.76757812 103.90820312 C10.43521341 98.52881865 9.55032069 93.62429671 8.08984375 88.4375 C7.42984375 88.4375 6.76984375 88.4375 6.08984375 88.4375 C5.98671875 87.261875 5.88359375 86.08625 5.77734375 84.875 C5.41219685 81.7521765 4.91522584 80.08826418 3.46484375 77.1875 C1.49288735 71.80943709 2.32749407 67.03112596 3.08984375 61.4375 C3.74984375 61.4375 4.40984375 61.4375 5.08984375 61.4375 C5.74061548 58.27182793 6.38454215 55.10479923 7.02734375 51.9375 C7.20974609 51.050625 7.39214844 50.16375 7.58007812 49.25 C9.09736745 41.7463146 10.23101284 34.43166424 10.27734375 26.75 C10.29152344 25.67363281 10.30570313 24.59726562 10.3203125 23.48828125 C9.98130034 19.00067956 8.56713558 16.15343775 6.08984375 12.4375 C-1.18552663 12.90918721 -1.18552663 12.90918721 -7.91015625 15.4375 C-9.27260421 17.08045195 -10.608805 18.74574337 -11.91015625 20.4375 C-12.90015625 20.7675 -13.89015625 21.0975 -14.91015625 21.4375 C-15.24015625 22.0975 -15.57015625 22.7575 -15.91015625 23.4375 C-16.96203125 24.05625 -16.96203125 24.05625 -18.03515625 24.6875 C-23.46406302 27.99205195 -28.02449279 31.66617308 -30.91015625 37.4375 C-31.51859375 37.30472656 -32.12703125 37.17195313 -32.75390625 37.03515625 C-45.58953301 34.44915498 -61.72131929 32.32242914 -74.46069336 36.21728516 C-77.42443869 37.03904505 -79.8302295 37.5401552 -82.91015625 37.4375 C-86.58474692 35.30493502 -89.10314634 32.39405712 -91.84765625 29.1875 C-93.29030077 27.59535202 -94.73677115 26.00666022 -96.1875 24.421875 C-96.80874756 23.70741211 -97.42999512 22.99294922 -98.07006836 22.25683594 C-99.92987182 20.41800677 -101.57605149 19.55488064 -103.91015625 18.4375 C-104.24015625 17.7775 -104.57015625 17.1175 -104.91015625 16.4375 C-109.39634623 12.96432066 -114.45386706 12.33805258 -119.91015625 11.4375 Z " fill="#ED0704" transform="translate(152.91015625,17.5625)"/>
<path d="M0 0 C4.14276132 2.09946718 6.52663005 3.9525875 8.4296875 8.23046875 C9.57409664 10.76992208 10.30339532 12.16667657 12.3046875 14.16796875 C12.6140625 15.01359375 12.9234375 15.85921875 13.2421875 16.73046875 C13.5928125 17.53484375 13.9434375 18.33921875 14.3046875 19.16796875 C15.7896875 19.66296875 15.7896875 19.66296875 17.3046875 20.16796875 C17.3046875 19.50796875 17.3046875 18.84796875 17.3046875 18.16796875 C19.26682854 16.64185905 21.17065698 15.42898678 23.3046875 14.16796875 C24.1090625 13.64203125 24.9134375 13.11609375 25.7421875 12.57421875 C34.84594894 7.21311479 43.08827792 7.55498418 53.3046875 8.16796875 C52.92257116 14.71420215 51.67771275 19.52258965 48.3046875 25.16796875 C47.94761719 25.77253906 47.59054688 26.37710938 47.22265625 27 C46.1796875 28.66796875 46.1796875 28.66796875 44.3046875 31.16796875 C43.6446875 31.16796875 42.9846875 31.16796875 42.3046875 31.16796875 C42.0778125 31.72484375 41.8509375 32.28171875 41.6171875 32.85546875 C39.92918714 35.82956463 37.83792233 37.8880574 35.3046875 40.16796875 C34.6446875 40.16796875 33.9846875 40.16796875 33.3046875 40.16796875 C32.9746875 41.15796875 32.6446875 42.14796875 32.3046875 43.16796875 C31.3146875 43.16796875 30.3246875 43.16796875 29.3046875 43.16796875 C29.3046875 43.82796875 29.3046875 44.48796875 29.3046875 45.16796875 C27.66490432 46.21146714 25.99003774 47.19978883 24.3046875 48.16796875 C23.2734375 48.97234375 22.2421875 49.77671875 21.1796875 50.60546875 C16.64431957 53.88868075 11.58077491 55.43652035 6.3046875 57.16796875 C5.49257812 57.45800781 4.68046875 57.74804688 3.84375 58.046875 C-6.62085555 61.74341655 -16.04134591 62.08053735 -26.6953125 59.16796875 C-27.34910889 58.99096436 -28.00290527 58.81395996 -28.67651367 58.6315918 C-36.64414681 56.41630826 -43.8340012 54.0392059 -50.77734375 49.40234375 C-52.77787142 48.00294786 -52.77787142 48.00294786 -55.6953125 47.16796875 C-55.6953125 46.50796875 -55.6953125 45.84796875 -55.6953125 45.16796875 C-56.4378125 44.92046875 -57.1803125 44.67296875 -57.9453125 44.41796875 C-60.92554337 43.06331836 -62.59450502 41.65781465 -64.6953125 39.16796875 C-64.6953125 38.50796875 -64.6953125 37.84796875 -64.6953125 37.16796875 C-65.2521875 37.10609375 -65.8090625 37.04421875 -66.3828125 36.98046875 C-72.74476496 34.74518816 -76.30696249 27.63022265 -79.6953125 22.16796875 C-80.3140625 21.17796875 -80.9328125 20.18796875 -81.5703125 19.16796875 C-83.09156035 15.11130782 -82.95224164 11.45012105 -82.6953125 7.16796875 C-75.10032289 6.90353971 -68.12172092 7.559153 -60.6953125 9.16796875 C-60.6953125 9.82796875 -60.6953125 10.48796875 -60.6953125 11.16796875 C-59.9940625 11.25046875 -59.2928125 11.33296875 -58.5703125 11.41796875 C-53.123665 12.83883332 -48.97688838 16.64196509 -44.6953125 20.16796875 C-44.3240625 19.36359375 -43.9528125 18.55921875 -43.5703125 17.73046875 C-41.3631325 13.32666941 -38.76853896 9.02020248 -35.6953125 5.16796875 C-35.0353125 5.16796875 -34.3753125 5.16796875 -33.6953125 5.16796875 C-33.6953125 4.50796875 -33.6953125 3.84796875 -33.6953125 3.16796875 C-28.6171875 0.23828125 -28.6171875 0.23828125 -26.6953125 -0.83203125 C-26.09332031 -1.198125 -25.49132812 -1.56421875 -24.87109375 -1.94140625 C-17.06945452 -5.13489592 -7.52281316 -2.983973 0 0 Z " fill="#FDFBF9" transform="translate(110.6953125,119.83203125)"/>
<path d="M0 0 C23.26245148 -0.76376277 44.88175047 1.65089862 64.4921875 15.4453125 C66.24954919 17.25730719 66.67497428 18.40079734 67.0625 20.875 C67.041875 21.90625 67.02125 22.9375 67 24 C68.65 24.66 70.3 25.32 72 26 C72 26.66 72 27.32 72 28 C69.09399739 29.25664978 67.20395416 30 64 30 C64 30.66 64 31.32 64 32 C62.35 32.33 60.7 32.66 59 33 C58.67 33.99 58.34 34.98 58 36 C57.34 36 56.68 36 56 36 C55.67 36.99 55.34 37.98 55 39 C54.01 39 53.02 39 52 39 C51.67 39.99 51.34 40.98 51 42 C49.35443434 43.03435556 47.6829392 44.02763513 46 45 C42.82625203 47.41204846 40.41047616 49.30534804 38.375 52.75 C37 55 37 55 35.1171875 55.6953125 C32.38655824 56.08828129 30.27172548 55.26755325 27.6484375 54.55078125 C17.05468252 52.34765521 2.35419045 51.24990357 -7.7890625 55.04296875 C-11.0061711 56.20549324 -12.60735393 56.66055493 -16 56 C-22.05849352 51.78237425 -29.62869798 45.11390605 -32 38 C-32.99 37.34 -33.98 36.68 -35 36 C-35 35.34 -35 34.68 -35 34 C-35.66 34 -36.32 34 -37 34 C-37.33 33.34 -37.66 32.68 -38 32 C-40.02463255 31.34786708 -40.02463255 31.34786708 -42 31 C-42 30.34 -42 29.68 -42 29 C-44.97 28.01 -47.94 27.02 -51 26 C-50.236875 25.4225 -49.47375 24.845 -48.6875 24.25 C-45.99389974 22.21965513 -45.99389974 22.21965513 -44.625 19.875 C-42.2236686 17.104233 -39.48903201 16.78996951 -36 16 C-36 15.34 -36 14.68 -36 14 C-35.34 14 -34.68 14 -34 14 C-34 13.34 -34 12.68 -34 12 C-33.00097656 11.81824219 -32.00195312 11.63648438 -30.97265625 11.44921875 C-29.68230469 11.19785156 -28.39195313 10.94648438 -27.0625 10.6875 C-25.13083984 10.32205078 -25.13083984 10.32205078 -23.16015625 9.94921875 C-21.59587891 9.47935547 -21.59587891 9.47935547 -20 9 C-19.67 8.01 -19.34 7.02 -19 6 C-14.12551014 3.76036952 -8.78036028 3.28831532 -3.51171875 2.5625 C-2.26841797 2.2840625 -2.26841797 2.2840625 -1 2 C-0.67 1.34 -0.34 0.68 0 0 Z " fill="#EE0602" transform="translate(86,0)"/>
<path d="M0 0 C5.4143542 0.60159491 10.63489162 1.58975908 15 5 C15.99 6.485 15.99 6.485 17 8 C17.74636719 8.43957031 18.49273437 8.87914062 19.26171875 9.33203125 C22.58471922 11.35616991 25.129044 13.91089332 27.8125 16.6875 C28.31458984 17.19861328 28.81667969 17.70972656 29.33398438 18.23632812 C30.56063509 19.48634362 31.78097491 20.7425468 33 22 C30.66666667 22 28.33333333 22 26 22 C26.20625 23.11375 26.4125 24.2275 26.625 25.375 C26.74875 26.57125 26.8725 27.7675 27 29 C26.34 29.66 25.68 30.32 25 31 C24.01 31 23.02 31 22 31 C21.95875 31.928125 21.9175 32.85625 21.875 33.8125 C21 37 21 37 17.9375 38.875 C16.968125 39.24625 15.99875 39.6175 15 40 C15 40.99 15 41.98 15 43 C13.02 43.495 13.02 43.495 11 44 C10.87625 44.61875 10.7525 45.2375 10.625 45.875 C10 48 10 48 8 50 C6 44.25 6 44.25 6 42 C4.02 42.495 4.02 42.495 2 43 C2.30759178 44.97993541 2.6212068 46.95893599 2.9375 48.9375 C3.11152344 50.03964844 3.28554688 51.14179687 3.46484375 52.27734375 C3.71845136 54.90426929 3.71845136 54.90426929 5 56 C5.04092937 58.33297433 5.04241723 60.66705225 5 63 C4.67 63 4.34 63 4 63 C4 61.02 4 59.04 4 57 C3.34 57 2.68 57 2 57 C1.72285156 55.85660156 1.44570313 54.71320313 1.16015625 53.53515625 C0.79445622 52.04422535 0.42856071 50.55334239 0.0625 49.0625 C-0.11990234 48.30775391 -0.30230469 47.55300781 -0.49023438 46.77539062 C-1.13839179 43.08720179 -1.13839179 43.08720179 -3 40 C-3.24546148 37.61811453 -3.42867579 35.26392804 -3.5625 32.875 C-3.6027832 32.16085938 -3.64306641 31.44671875 -3.68457031 30.7109375 C-3.80171633 28.47433447 -3.90443784 26.23762482 -4 24 C-4.03013184 23.3080957 -4.06026367 22.61619141 -4.09130859 21.90332031 C-4.38102892 14.26725209 -4.45563422 7.91126845 -1 1 C-0.67 0.67 -0.34 0.34 0 0 Z " fill="#FB970E" transform="translate(33,29)"/>
<path d="M0 0 C3.77639457 3.77639457 4.17759992 8.03999679 4.3125 13.1875 C4.27195938 20.26589236 3.22582272 27.14117352 2.125 34.125 C1.95137939 35.24028076 1.77775879 36.35556152 1.59887695 37.50463867 C1.42445068 38.55756104 1.25002441 39.6104834 1.0703125 40.6953125 C0.91320801 41.64422363 0.75610352 42.59313477 0.59423828 43.57080078 C0 46 0 46 -2 49 C-1.67 43.06 -1.34 37.12 -1 31 C-5.18907974 32.52545875 -5.18907974 32.52545875 -6.046875 35.8203125 C-6.27890625 36.91085938 -6.5109375 38.00140625 -6.75 39.125 C-6.99234375 40.22070312 -7.2346875 41.31640625 -7.484375 42.4453125 C-7.65453125 43.28835937 -7.8246875 44.13140625 -8 45 C-10.109375 45.33203125 -10.109375 45.33203125 -13 45 C-15.28802809 43.28978611 -17.22046404 41.65983091 -19.25 39.6875 C-19.79140625 39.18798828 -20.3328125 38.68847656 -20.890625 38.17382812 C-23.37692084 35.82738643 -24.90391228 34.28826316 -26 31 C-28.00016466 29.79117904 -28.00016466 29.79117904 -30 29 C-27.09684486 24.7569271 -24.95685745 23.29309325 -20 22 C-17.72573954 21.15570324 -17.72573954 21.15570324 -17.1484375 18.49609375 C-16.89320313 17.48675781 -16.63796875 16.47742188 -16.375 15.4375 C-16.11460937 14.42558594 -15.85421875 13.41367187 -15.5859375 12.37109375 C-15.39257812 11.58863281 -15.19921875 10.80617188 -15 10 C-19.10711771 11.86687169 -21.88162476 13.77025422 -25 17 C-25.66 17 -26.32 17 -27 17 C-27.66 18.32 -28.32 19.64 -29 21 C-29.66 21 -30.32 21 -31 21 C-31.268125 21.61875 -31.53625 22.2375 -31.8125 22.875 C-33 25 -33 25 -36 27 C-38.73990408 26.96856707 -41.28417854 26.44521663 -44 26 C-40 25 -40 25 -38 24.8125 C-34.86812273 23.54017486 -33.83831769 20.78373821 -32 18 C-28.90608487 14.92027715 -26.17149451 12.39049817 -22 11 C-21.67 10.34 -21.34 9.68 -21 9 C-20.01 8.67 -19.02 8.34 -18 8 C-17.46375 7.21625 -16.9275 6.4325 -16.375 5.625 C-12.57471343 1.42468326 -5.71499455 -1.17661652 0 0 Z " fill="#FB970E" transform="translate(159,30)"/>
<path d="M0 0 C3 2 3 2 3.875 3.8125 C5.7415656 7.4419331 8.46049552 10.29622652 12.1875 12 C14 13 14 13 14.9375 15.5 C15.77727276 18.22626429 15.77727276 18.22626429 18.5 19.25 C19.325 19.4975 20.15 19.745 21 20 C21.66 20.33 22.32 20.66 23 21 C23 21.66 23 22.32 23 23 C23.73605469 23.10828125 24.47210938 23.2165625 25.23046875 23.328125 C28.17012518 24.04127155 29.83755523 25.04435423 32.3125 26.75 C41.4614084 32.45946915 53.52829243 36.08595379 64.3125 36.1875 C64.98925781 36.20167969 65.66601562 36.21585938 66.36328125 36.23046875 C73.82707041 35.57807829 80.9716189 33.17444787 88.0625 30.875 C88.92810547 30.59785156 89.79371094 30.32070312 90.68554688 30.03515625 C92.7915314 29.36031038 94.89628687 28.68188659 97 28 C96.505 30.475 96.505 30.475 96 33 C93.69 33.66 91.38 34.32 89 35 C90.32 35.66 91.64 36.32 93 37 C93 37.66 93 38.32 93 39 C96.63 39 100.26 39 104 39 C104 38.34 104 37.68 104 37 C105.98 36.67 107.96 36.34 110 36 C110 35.34 110 34.68 110 34 C110.66 34 111.32 34 112 34 C112 33.34 112 32.68 112 32 C113.65 32 115.3 32 117 32 C108.64313297 41.78437457 90.1903299 46.24770492 78 48 C73.47580695 48.31975447 68.97202324 48.38055474 64.4375 48.375 C62.59599365 48.3747583 62.59599365 48.3747583 60.71728516 48.37451172 C37.0792303 48.0792303 37.0792303 48.0792303 31 42 C31.88300781 42.01160156 32.76601562 42.02320313 33.67578125 42.03515625 C39.45165324 42.07858386 45.12911136 42.06785065 50.875 41.4375 C55.46506032 40.94789357 59.45464102 41.22814659 64 42 C64 41.34 64 40.68 64 40 C62.700625 39.938125 61.40125 39.87625 60.0625 39.8125 C54.93452543 39.29823321 50.12768174 38.09829833 45.1875 36.6875 C44.45861572 36.48680908 43.72973145 36.28611816 42.97875977 36.0793457 C38.55933169 34.76779645 35.4044262 33.24879529 32 30 C31.67 29.34 31.34 28.68 31 28 C29.06997537 27.23663205 27.1044176 26.56170483 25.125 25.9375 C23.52011719 25.42509766 23.52011719 25.42509766 21.8828125 24.90234375 C20.93148437 24.60457031 19.98015625 24.30679688 19 24 C18.01 23.67 17.02 23.34 16 23 C14.8125 20.4375 14.8125 20.4375 14 18 C13.34 18 12.68 18 12 18 C11.67 16.68 11.34 15.36 11 14 C10.13375 13.938125 10.13375 13.938125 9.25 13.875 C5.82895248 12.54459263 4.84406323 10.09326735 3 7 C2.4225 6.0925 1.845 5.185 1.25 4.25 C0 2 0 2 0 0 Z " fill="#EA0905" transform="translate(32,144)"/>
<path d="M0 0 C0.33 0 0.66 0 1 0 C0.67 9.24 0.34 18.48 0 28 C0.66 28 1.32 28 2 28 C2.12117188 27.07316406 2.24234375 26.14632812 2.3671875 25.19140625 C2.61855469 23.39509766 2.61855469 23.39509766 2.875 21.5625 C3.03742187 20.36753906 3.19984375 19.17257813 3.3671875 17.94140625 C3.57601562 16.97074219 3.78484375 16.00007813 4 15 C4.66 14.67 5.32 14.34 6 14 C6 15.32 6 16.64 6 18 C6.53625 17.608125 7.0725 17.21625 7.625 16.8125 C10 16 10 16 13.25 17.375 C14.1575 17.91125 15.065 18.4475 16 19 C16 19.66 16 20.32 16 21 C16.66 21 17.32 21 18 21 C18 21.99 18 22.98 18 24 C18.66 24 19.32 24 20 24 C20.33 24.99 20.66 25.98 21 27 C21.66 27.33 22.32 27.66 23 28 C23 30.31 23 32.62 23 35 C21.02 35.99 19.04 36.98 17 38 C17 38.99 17 39.98 17 41 C15.02 41.495 15.02 41.495 13 42 C12.87625 42.61875 12.7525 43.2375 12.625 43.875 C12 46 12 46 10 48 C8 42.25 8 42.25 8 40 C6.02 40.495 6.02 40.495 4 41 C4.30759178 42.97993541 4.6212068 44.95893599 4.9375 46.9375 C5.11152344 48.03964844 5.28554688 49.14179687 5.46484375 50.27734375 C5.71845136 52.90426929 5.71845136 52.90426929 7 54 C7.04092937 56.33297433 7.04241723 58.66705225 7 61 C6.67 61 6.34 61 6 61 C6 59.02 6 57.04 6 55 C5.34 55 4.68 55 4 55 C3.72285156 53.85660156 3.44570313 52.71320313 3.16015625 51.53515625 C2.79445622 50.04422535 2.42856071 48.55334239 2.0625 47.0625 C1.88009766 46.30775391 1.69769531 45.55300781 1.50976562 44.77539062 C0.86160821 41.08720179 0.86160821 41.08720179 -1 38 C-1.24545921 35.61813654 -1.42838599 33.26388853 -1.5625 30.875 C-1.6035083 30.16158447 -1.6445166 29.44816895 -1.68676758 28.71313477 C-2.7586941 8.55958448 -2.7586941 8.55958448 0 0 Z " fill="#FC8402" transform="translate(31,31)"/>
<path d="M0 0 C0.78503906 -0.020625 1.57007812 -0.04125 2.37890625 -0.0625 C4.65625 -0.078125 4.65625 -0.078125 8.5 0.25 C10.97717167 3.96575751 10.80345742 5.84986738 10.5 10.25 C9.875 13.0625 9.875 13.0625 8.5 15.25 C5.375 16.5625 5.375 16.5625 2.5 17.25 C3.16 19.23 3.82 21.21 4.5 23.25 C8.89436211 24.10743651 13.02572076 24.33948558 17.5 24.25 C17.5 25.9 17.5 27.55 17.5 29.25 C16.51 29.58 15.52 29.91 14.5 30.25 C14.17 31.9 13.84 33.55 13.5 35.25 C12.84 35.25 12.18 35.25 11.5 35.25 C11.5 32.61 11.5 29.97 11.5 27.25 C10.84 27.58 10.18 27.91 9.5 28.25 C8.14842019 28.34465345 6.79238852 28.38072162 5.4375 28.3828125 C4.64085938 28.38410156 3.84421875 28.38539063 3.0234375 28.38671875 C2.19070312 28.38285156 1.35796875 28.37898438 0.5 28.375 C-0.33273438 28.37886719 -1.16546875 28.38273437 -2.0234375 28.38671875 C-2.82007812 28.38542969 -3.61671875 28.38414062 -4.4375 28.3828125 C-5.16839844 28.38168457 -5.89929688 28.38055664 -6.65234375 28.37939453 C-8.5 28.25 -8.5 28.25 -10.5 27.25 C-10.5 29.89 -10.5 32.53 -10.5 35.25 C-11.49 34.92 -12.48 34.59 -13.5 34.25 C-13.85412344 32.92203709 -14.18521554 31.58783393 -14.5 30.25 C-15.015625 29.734375 -15.53125 29.21875 -16.0625 28.6875 C-16.536875 28.213125 -17.01125 27.73875 -17.5 27.25 C-17.5 26.26 -17.5 25.27 -17.5 24.25 C-16.52160156 24.28480469 -16.52160156 24.28480469 -15.5234375 24.3203125 C-10.41301097 24.42583753 -6.29574967 24.26926302 -1.5 22.25 C-1.17 20.6 -0.84 18.95 -0.5 17.25 C-1.221875 17.188125 -1.94375 17.12625 -2.6875 17.0625 C-6.63389222 15.92243114 -8.10625391 14.60124453 -10.5 11.25 C-10.91295587 7.87408575 -10.7955541 4.63245247 -10.5 1.25 C-7.21428629 -0.39285685 -3.60752467 0.02369474 0 0 Z " fill="#160F0E" transform="translate(97.5,126.75)"/>
<path d="M0 0 C-0.33 0.99 -0.66 1.98 -1 3 C-2.04800781 3.20496094 -3.09601563 3.40992188 -4.17578125 3.62109375 C-5.55470769 3.89312686 -6.93361283 4.16526791 -8.3125 4.4375 C-9.00279297 4.57220703 -9.69308594 4.70691406 -10.40429688 4.84570312 C-15.86558226 5.61250168 -15.86558226 5.61250168 -20.3125 8.4375 C-23.50906067 11.3972784 -27.12554237 11.96761268 -31.375 12.125 C-32.24125 12.08375 -33.1075 12.0425 -34 12 C-34 12.66 -34 13.32 -34 14 C-34.66 14 -35.32 14 -36 14 C-36 14.66 -36 15.32 -36 16 C-38.64738916 17.4606285 -39.89448334 18 -43 18 C-43.226875 18.5775 -43.45375 19.155 -43.6875 19.75 C-45.33038023 22.5663661 -47.39533227 24.08077114 -50 26 C-47.36 26.99 -44.72 27.98 -42 29 C-42 29.66 -42 30.32 -42 31 C-40.35 31.33 -38.7 31.66 -37 32 C-37 32.66 -37 33.32 -37 34 C-36.34 34 -35.68 34 -35 34 C-33.62689293 35.29233607 -32.28965176 36.62437146 -31 38 C-31.495 38.99 -31.495 38.99 -32 40 C-34.03833424 38.7260411 -36.03852126 37.38938077 -38 36 C-38 35.34 -38 34.68 -38 34 C-38.5775 33.86851563 -39.155 33.73703125 -39.75 33.6015625 C-42.6200456 32.83422392 -45.27028171 31.68570037 -48 30.5234375 C-50.35652653 29.90669032 -51.71734116 30.23571691 -54 31 C-56.20971003 37.20284744 -56.23565619 42.89601698 -56.125 49.4375 C-56.11597656 50.45521484 -56.10695313 51.47292969 -56.09765625 52.52148438 C-56.07424698 55.01457156 -56.041457 57.50715859 -56 60 C-56.66 60 -57.32 60 -58 60 C-58.02898097 55.89584811 -58.0467922 51.79172247 -58.0625 47.6875 C-58.07087891 46.52025391 -58.07925781 45.35300781 -58.08789062 44.15039062 C-58.09272461 42.47299805 -58.09272461 42.47299805 -58.09765625 40.76171875 C-58.10551147 39.2142395 -58.10551147 39.2142395 -58.11352539 37.63549805 C-58 35 -58 35 -57 32 C-57.66 32 -58.32 32 -59 32 C-59.226875 32.70125 -59.45375 33.4025 -59.6875 34.125 C-61.66448783 38.45554477 -64.62181519 41.74341973 -68.125 44.9375 C-69.93769278 46.93146206 -70.598932 48.23115049 -71.5625 50.6875 C-72.036875 51.780625 -72.51125 52.87375 -73 54 C-74.485 54.495 -74.485 54.495 -76 55 C-76.70491267 57.32206525 -77.37212429 59.65593068 -78 62 C-78.99 62.495 -78.99 62.495 -80 63 C-78.05348671 50.25271176 -69.16368626 39.47864244 -61 30 C-60.41605469 29.31292969 -59.83210938 28.62585938 -59.23046875 27.91796875 C-45.07291828 12.61347748 -20.96433067 0 0 0 Z " fill="#DC220F" transform="translate(86,0)"/>
<path d="M0 0 C2 2 2 2 2.265625 5.1875 C2.26046875 6.445625 2.2553125 7.70375 2.25 9 C2.25515625 10.258125 2.2603125 11.51625 2.265625 12.8125 C2 16 2 16 0 18 C-0.61056087 20.02213278 -1.14363995 22.06827978 -1.625 24.125 C-1.88539063 25.22070312 -2.14578125 26.31640625 -2.4140625 27.4453125 C-2.60742188 28.28835937 -2.80078125 29.13140625 -3 30 C-5.16796875 30.34375 -5.16796875 30.34375 -8 30 C-10.00267395 28.19905525 -11.61352605 26.54883673 -13.3125 24.5 C-13.76689453 23.97535156 -14.22128906 23.45070313 -14.68945312 22.91015625 C-15.8057012 21.61765847 -16.90460622 20.31021858 -18 19 C-16.93024678 15.55088535 -15.97067848 12.95646199 -13.9375 9.9375 C-12.07831896 7.11874165 -11.38898461 5.30636921 -11 2 C-8.525 2.99 -8.525 2.99 -6 4 C-5.34 3.01 -4.68 2.02 -4 1 C-2 0.1875 -2 0.1875 0 0 Z " fill="#FC8402" transform="translate(154,45)"/>
<path d="M0 0 C0.66 0 1.32 0 2 0 C2.6695256 2.62430124 3.33573718 5.24936657 4 7.875 C4.19078125 8.62136719 4.3815625 9.36773437 4.578125 10.13671875 C6 15.7734375 6 15.7734375 6 18 C6.99 18 7.98 18 9 18 C9.66 22.29 10.32 26.58 11 31 C11.66 31 12.32 31 13 31 C13 31.66 13 32.32 13 33 C13.66 33 14.32 33 15 33 C18.88612743 40.12155445 18.88612743 40.12155445 19.4375 44.375 C19.623125 45.24125 19.80875 46.1075 20 47 C22.47130918 48.15521502 22.47130918 48.15521502 25 49 C25.6875 51.0625 25.6875 51.0625 26 53 C26.66 53.33 27.32 53.66 28 54 C28.33 54.99 28.66 55.98 29 57 C31.01508358 57.73323796 31.01508358 57.73323796 33 58 C33 58.66 33 59.32 33 60 C33.66 60 34.32 60 35 60 C35.433125 60.804375 35.86625 61.60875 36.3125 62.4375 C37.74496886 65.24597083 37.74496886 65.24597083 40.5625 65.625 C41.7690625 65.810625 41.7690625 65.810625 43 66 C43.99 67.485 43.99 67.485 45 69 C46.89179203 69.6814823 46.89179203 69.6814823 49 70 C51.125 70.375 51.125 70.375 53 71 C53.99 72.485 53.99 72.485 55 74 C56.94832935 75.00168531 56.94832935 75.00168531 59.125 75.6875 C59.84945312 75.93886719 60.57390625 76.19023437 61.3203125 76.44921875 C61.87460937 76.63097656 62.42890625 76.81273437 63 77 C63 77.99 63 78.98 63 80 C50.25271176 78.05348671 39.47864244 69.16368626 30 61 C29.31292969 60.41605469 28.62585938 59.83210938 27.91796875 59.23046875 C12.93773201 45.37287271 2.75347996 23.99895968 0 4 C0 2.68 0 1.36 0 0 Z " fill="#DB5449" transform="translate(0,106)"/>
<path d="M0 0 C3.46941546 0.45822468 6.67395049 0.89131683 10 2 C10 2.66 10 3.32 10 4 C10.99 4.0928125 10.99 4.0928125 12 4.1875 C15.56073634 5.15186609 18.08804315 6.80600553 21.1328125 8.84375 C23.10083909 10.16172777 23.10083909 10.16172777 26 11 C26 12.65 26 14.3 26 16 C15.90179232 16.77347974 8.0755761 14.00491556 0 8 C-0.33 7.67 -0.66 7.34 -1 7 C-0.71269945 4.66055264 -0.38063221 2.3260857 0 0 Z " fill="#190E0B" transform="translate(55,101)"/>
<path d="M0 0 C0.375 3.1875 0.375 3.1875 0 7 C-4.50014916 11.95016407 -10.02107402 14.73852772 -16.734375 15.1796875 C-19.16477227 15.18655303 -21.57365389 15.13424456 -24 15 C-24 12 -24 12 -22.375 10.125 C-21.59125 9.42375 -20.8075 8.7225 -20 8 C-19.13375 7.175 -18.2675 6.35 -17.375 5.5 C-12.67558779 1.63976854 -6.05654674 -2.14909723 0 0 Z " fill="#120B09" transform="translate(138,101)"/>
<path d="M0 0 C0.99 0 1.98 0 3 0 C3.66 1.98 4.32 3.96 5 6 C9.39436211 6.85743651 13.52572076 7.08948558 18 7 C18 8.65 18 10.3 18 12 C17.01 12.33 16.02 12.66 15 13 C14.67 14.65 14.34 16.3 14 18 C13.34 18 12.68 18 12 18 C12 15.36 12 12.72 12 10 C11.01 10.495 11.01 10.495 10 11 C8.64842019 11.09465345 7.29238852 11.13072162 5.9375 11.1328125 C5.14085938 11.13410156 4.34421875 11.13539063 3.5234375 11.13671875 C2.69070312 11.13285156 1.85796875 11.12898437 1 11.125 C0.16726562 11.12886719 -0.66546875 11.13273438 -1.5234375 11.13671875 C-2.32007812 11.13542969 -3.11671875 11.13414062 -3.9375 11.1328125 C-4.66839844 11.13168457 -5.39929688 11.13055664 -6.15234375 11.12939453 C-8 11 -8 11 -10 10 C-10 12.64 -10 15.28 -10 18 C-10.99 17.67 -11.98 17.34 -13 17 C-13.35412344 15.67203709 -13.68521554 14.33783393 -14 13 C-14.515625 12.484375 -15.03125 11.96875 -15.5625 11.4375 C-16.036875 10.963125 -16.51125 10.48875 -17 10 C-17 9.01 -17 8.02 -17 7 C-16.02160156 7.03480469 -16.02160156 7.03480469 -15.0234375 7.0703125 C-9.91301097 7.17583753 -5.79574967 7.01926302 -1 5 C-0.67 3.35 -0.34 1.7 0 0 Z " fill="#67564E" transform="translate(97,144)"/>
<path d="M0 0 C2.4375 1 2.4375 1 4 3 C4.76991754 5.78881242 4.9063932 8.05138586 5 11 C3 13 3 13 -0.22265625 13.23046875 C-2.12337891 13.20919922 -2.12337891 13.20919922 -4.0625 13.1875 C-5.33222656 13.18105469 -6.60195312 13.17460938 -7.91015625 13.16796875 C-11 13 -11 13 -12 12 C-12.57692308 4.96153846 -12.57692308 4.96153846 -10.5 1.5 C-6.95461944 -0.62722834 -4.03234651 -0.65411781 0 0 Z " fill="#FDFBF4" transform="translate(129,83)"/>
<path d="M0 0 C2.4375 1.6875 2.4375 1.6875 4 4 C4.25 7.25 4.25 7.25 4 10 C0.5233662 12.14336161 -2.21229195 12.21277626 -6.25 12.125 C-7.32765625 12.10695313 -8.4053125 12.08890625 -9.515625 12.0703125 C-10.33546875 12.04710938 -11.1553125 12.02390625 -12 12 C-13.34376918 4.67034991 -13.34376918 4.67034991 -11.75 1.5625 C-8.0144471 -1.77281509 -4.6070414 -1.05072874 0 0 Z " fill="#FDFBF5" transform="translate(70,84)"/>
<path d="M0 0 C0.99128906 -0.00257812 1.98257813 -0.00515625 3.00390625 -0.0078125 C5.4375 0.125 5.4375 0.125 6.4375 1.125 C6.89969171 5.42693823 6.90144636 9.08664387 5.125 13.0625 C3.4375 15.125 3.4375 15.125 0.4375 17.125 C0.1075 18.115 -0.2225 19.105 -0.5625 20.125 C-5.67493182 21.06589801 -9.87657936 21.0170062 -15 20.1875 C-16.23621094 19.99285156 -17.47242187 19.79820313 -18.74609375 19.59765625 C-19.67550781 19.44167969 -20.60492188 19.28570312 -21.5625 19.125 C-20.90340529 15.33991327 -20.21567801 12.99043225 -17.5625 10.125 C-16.9025 10.125 -16.2425 10.125 -15.5625 10.125 C-15.2325 9.135 -14.9025 8.145 -14.5625 7.125 C-13.9025 7.125 -13.2425 7.125 -12.5625 7.125 C-12.2325 6.135 -11.9025 5.145 -11.5625 4.125 C-9.5 3.4375 -9.5 3.4375 -7.5625 3.125 C-7.5625 2.465 -7.5625 1.805 -7.5625 1.125 C-4.93920316 -0.18664842 -2.92551375 -0.00762846 0 0 Z M-12.4375 8.125 C-14.86510417 10.40980393 -17.23860767 12.73471075 -19.5625 15.125 C-19.2325 15.785 -18.9025 16.445 -18.5625 17.125 C-9.94723698 17.78489249 -3.10303875 16.2601339 4.0625 11.3125 C6.01005909 8.21411054 5.71255902 5.70076728 5.4375 2.125 C-0.71481701 -0.23459453 -7.46557277 4.66626801 -12.4375 8.125 Z " fill="#ED9B20" transform="translate(132.5625,98.875)"/>
<path d="M0 0 C3 2 3 2 3.875 3.8125 C5.7415656 7.4419331 8.46049552 10.29622652 12.1875 12 C14 13 14 13 14.9375 15.5 C15.77727276 18.22626429 15.77727276 18.22626429 18.5 19.25 C19.325 19.4975 20.15 19.745 21 20 C21.66 20.33 22.32 20.66 23 21 C23 21.66 23 22.32 23 23 C23.73605469 23.10828125 24.47210938 23.2165625 25.23046875 23.328125 C28.17012518 24.04127155 29.83755523 25.04435423 32.3125 26.75 C40.55070565 31.89113585 50.43877232 34.6192637 60 36 C60 36.33 60 36.66 60 37 C39.03491307 36.19896242 39.03491307 36.19896242 33.6875 30.5625 C29.53289618 26.60113357 24.42602727 25.57679425 19 24 C18.01 23.67 17.02 23.34 16 23 C14.8125 20.4375 14.8125 20.4375 14 18 C13.34 18 12.68 18 12 18 C11.67 16.68 11.34 15.36 11 14 C10.13375 13.938125 10.13375 13.938125 9.25 13.875 C5.82895248 12.54459263 4.84406323 10.09326735 3 7 C2.4225 6.0925 1.845 5.185 1.25 4.25 C0 2 0 2 0 0 Z " fill="#D32F25" transform="translate(32,144)"/>
<path d="M0 0 C1.32 0.33 2.64 0.66 4 1 C2.37660195 2.70884005 0.70680947 4.37446717 -1 6 C-1.66 6 -2.32 6 -3 6 C-3.33 6.99 -3.66 7.98 -4 9 C-4.99 9 -5.98 9 -7 9 C-7 9.66 -7 10.32 -7 11 C-8.63978318 12.04349839 -10.31464976 13.03182008 -12 14 C-13.03125 14.804375 -14.0625 15.60875 -15.125 16.4375 C-19.66036793 19.720712 -24.72391259 21.2685516 -30 23 C-30.81210938 23.29003906 -31.62421875 23.58007812 -32.4609375 23.87890625 C-41.83045372 27.1886159 -51.23830913 28.00239813 -61 26 C-61 25.67 -61 25.34 -61 25 C-55.72 24.67 -50.44 24.34 -45 24 C-45 23.34 -45 22.68 -45 22 C-41.28720531 20.76240177 -37.68693654 20.64391103 -33.8125 20.4375 C-33.06291016 20.39431641 -32.31332031 20.35113281 -31.54101562 20.30664062 C-29.69421625 20.20077315 -27.84713166 20.0999024 -26 20 C-26 19.34 -26 18.68 -26 18 C-24.906875 17.71125 -23.81375 17.4225 -22.6875 17.125 C-18.95986155 16.18106796 -18.95986155 16.18106796 -16 14 C-15.67 13.01 -15.34 12.02 -15 11 C-13.68 11 -12.36 11 -11 11 C-11 10.34 -11 9.68 -11 9 C-8.55400767 6.11722332 -6.78611227 4.54087318 -3 4 C-3 3.34 -3 2.68 -3 2 C-1.68 2.33 -0.36 2.66 1 3 C0.505 1.515 0.505 1.515 0 0 Z " fill="#F4CAC5" transform="translate(147,154)"/>
<path d="M0 0 C0.33 0 0.66 0 1 0 C0.67 9.24 0.34 18.48 0 28 C0.66 28 1.32 28 2 28 C2.33 26.35 2.66 24.7 3 23 C3.33 23 3.66 23 4 23 C4 24.98 4 26.96 4 29 C4.66 29.33 5.32 29.66 6 30 C6.4140625 32.28515625 6.4140625 32.28515625 6.625 35.0625 C6.69976562 35.98160156 6.77453125 36.90070313 6.8515625 37.84765625 C6.90054688 38.55792969 6.94953125 39.26820312 7 40 C5.515 40.495 5.515 40.495 4 41 C4.30759178 42.97993541 4.6212068 44.95893599 4.9375 46.9375 C5.11152344 48.03964844 5.28554688 49.14179687 5.46484375 50.27734375 C5.71845136 52.90426929 5.71845136 52.90426929 7 54 C7.04092937 56.33297433 7.04241723 58.66705225 7 61 C6.67 61 6.34 61 6 61 C6 59.02 6 57.04 6 55 C5.34 55 4.68 55 4 55 C3.72285156 53.85660156 3.44570313 52.71320313 3.16015625 51.53515625 C2.79445622 50.04422535 2.42856071 48.55334239 2.0625 47.0625 C1.88009766 46.30775391 1.69769531 45.55300781 1.50976562 44.77539062 C0.86160821 41.08720179 0.86160821 41.08720179 -1 38 C-1.24545921 35.61813654 -1.42838599 33.26388853 -1.5625 30.875 C-1.6035083 30.16158447 -1.6445166 29.44816895 -1.68676758 28.71313477 C-2.7586941 8.55958448 -2.7586941 8.55958448 0 0 Z " fill="#F88413" transform="translate(31,31)"/>
<path d="M0 0 C-0.33 0.99 -0.66 1.98 -1 3 C-2.04800781 3.20496094 -3.09601563 3.40992188 -4.17578125 3.62109375 C-5.55470769 3.89312686 -6.93361283 4.16526791 -8.3125 4.4375 C-9.00279297 4.57220703 -9.69308594 4.70691406 -10.40429688 4.84570312 C-15.86558226 5.61250168 -15.86558226 5.61250168 -20.3125 8.4375 C-23.50906067 11.3972784 -27.12554237 11.96761268 -31.375 12.125 C-32.24125 12.08375 -33.1075 12.0425 -34 12 C-34 12.66 -34 13.32 -34 14 C-34.66 14 -35.32 14 -36 14 C-36 14.66 -36 15.32 -36 16 C-38.64738916 17.4606285 -39.89448334 18 -43 18 C-43 18.66 -43 19.32 -43 20 C-48.625 22 -48.625 22 -52 22 C-38.47266515 9.77337042 -18.52145233 0 0 0 Z " fill="#D5170F" transform="translate(86,0)"/>
<path d="M0 0 C5.10037496 1.25703292 6.99466677 2.78595723 9.875 7.125 C12.39032374 10.66411621 12.39032374 10.66411621 16.04296875 12.69140625 C19.09645854 12.68550008 22.0273095 11.99520762 25.02734375 11.46875 C30.16419518 10.75012312 35.32230267 10.80924768 40.5 10.8125 C42.08554688 10.8115332 42.08554688 10.8115332 43.703125 10.81054688 C51.9524413 10.86587766 59.88055353 11.54266345 68 13 C68 12.01 68 11.02 68 10 C68.66 10 69.32 10 70 10 C69.42655063 12.86724686 69.1385485 13.8614515 67 16 C64.9609375 15.79296875 64.9609375 15.79296875 62.375 15.1875 C50.60823288 12.81876518 34.64009595 10.76903975 23.2109375 15.04296875 C19.98714443 16.20790872 18.39946921 16.67000121 15 16 C9.28317815 11.95805088 4.32829227 6.47957407 0 1 C0 0.67 0 0.34 0 0 Z " fill="#E13816" transform="translate(55,40)"/>
<path d="M0 0 C-0.53544499 9.17298608 -3.65086871 15.62188788 -9 23 C-9.33 23 -9.66 23 -10 23 C-9.67 20.69 -9.34 18.38 -9 16 C-8.34 16 -7.68 16 -7 16 C-6.87882812 15.38511719 -6.75765625 14.77023438 -6.6328125 14.13671875 C-6.46523437 13.32847656 -6.29765625 12.52023438 -6.125 11.6875 C-5.88136719 10.48673828 -5.88136719 10.48673828 -5.6328125 9.26171875 C-5 7 -5 7 -3 4 C-12.53748149 3.5722392 -20.76838596 4.67479586 -30 7 C-21.81220332 -1.73865762 -11.04319701 -0.42886202 0 0 Z " fill="#F7D5BC" transform="translate(164,128)"/>
<path d="M0 0 C17.1027285 -0.55600548 35.50421182 6.76569397 49 17 C47 18 47 18 43.875 17.0625 C42.92625 16.711875 41.9775 16.36125 41 16 C41 15.34 41 14.68 41 14 C40.34 14 39.68 14 39 14 C39 13.34 39 12.68 39 12 C38.09636719 11.80664062 37.19273437 11.61328125 36.26171875 11.4140625 C35.08222656 11.15367188 33.90273437 10.89328125 32.6875 10.625 C31.51574219 10.36976562 30.34398437 10.11453125 29.13671875 9.8515625 C26 9 26 9 23 7 C20.83231196 6.48702148 20.83231196 6.48702148 18.4375 6.21875 C17.11878906 6.03892578 17.11878906 6.03892578 15.7734375 5.85546875 C14.85820313 5.73816406 13.94296875 5.62085938 13 5.5 C11.18656826 5.26757424 9.37400107 5.02827287 7.5625 4.78125 C6.35787109 4.6275293 6.35787109 4.6275293 5.12890625 4.47070312 C3 4 3 4 0 2 C0 1.34 0 0.68 0 0 Z " fill="#D43B32" transform="translate(103,0)"/>
<path d="M0 0 C0.66 0 1.32 0 2 0 C2.6695256 2.62430124 3.33573718 5.24936657 4 7.875 C4.19078125 8.62136719 4.3815625 9.36773437 4.578125 10.13671875 C6 15.7734375 6 15.7734375 6 18 C6.99 18 7.98 18 9 18 C9.66 22.29 10.32 26.58 11 31 C11.66 31 12.32 31 13 31 C13 31.66 13 32.32 13 33 C13.66 33 14.32 33 15 33 C15.67408308 34.26691507 16.33900497 35.53870749 17 36.8125 C17.556875 37.87404297 17.556875 37.87404297 18.125 38.95703125 C19 41 19 41 19 44 C18.34 44 17.68 44 17 44 C14.95830515 41.09451118 14 39.59857954 14 36 C13.34 36 12.68 36 12 36 C12 34.68 12 33.36 12 32 C11.37367676 31.9064624 10.74735352 31.8129248 10.10205078 31.71655273 C9.06153564 31.36185913 9.06153564 31.36185913 8 31 C6.73763912 28.32125814 5.77224218 25.86216768 4.875 23.0625 C4.61638184 22.29139893 4.35776367 21.52029785 4.09130859 20.72583008 C1.84469224 13.87458448 0 7.24592857 0 0 Z " fill="#D7271F" transform="translate(0,106)"/>
<path d="M0 0 C6.33098426 9.49647639 9.49387498 22.64087546 9 34 C8.34 34 7.68 34 7 34 C7 32.68 7 31.36 7 30 C6.34 30 5.68 30 5 30 C4.34 26.7 3.68 23.4 3 20 C2.34 20 1.68 20 1 20 C-0.23839599 13.34362157 -0.09139136 6.7528064 0 0 Z " fill="#DD241C" transform="translate(183,55)"/>
<path d="M0 0 C0.33 0 0.66 0 1 0 C1.39605306 4.48860134 0.37843078 7.19451075 -2 11 C-3.97579738 12.80017094 -5.88861747 14.39083953 -8 16 C-9.02276467 16.89362771 -10.04363518 17.78942843 -11.0625 18.6875 C-13.76375777 20.81402207 -15.82472287 21.83016106 -19 23 C-20.34275169 23.98731742 -21.67732273 24.98594743 -23 26 C-23.99 26.33 -24.98 26.66 -26 27 C-26.66 27.66 -27.32 28.32 -28 29 C-28.66 28.34 -29.32 27.68 -30 27 C-28.73608512 25.99126984 -27.46359117 24.99328178 -26.1875 24 C-25.47980469 23.443125 -24.77210938 22.88625 -24.04296875 22.3125 C-22 21 -22 21 -19 21 C-19 20.34 -19 19.68 -19 19 C-18.01 18.67 -17.02 18.34 -16 18 C-14.62150897 16.71340837 -13.29470975 15.37086915 -12 14 C-7 9 -7 9 -4.875 7 C-2.84527016 4.83495484 -1.49051797 2.55517366 0 0 Z " fill="#DA2920" transform="translate(159,144)"/>
<path d="M0 0 C-3.36869158 12.08765803 -10.66539495 21.7532386 -19 31 C-19.33 31 -19.66 31 -20 31 C-20 29.35 -20 27.7 -20 26 C-18.68 25.34 -17.36 24.68 -16 24 C-16 23.01 -16 22.02 -16 21 C-15.01 21 -14.02 21 -13 21 C-12.814375 19.88625 -12.814375 19.88625 -12.625 18.75 C-12.04513299 16.19858515 -11.26291261 14.2732427 -10 12 C-9.34 12 -8.68 12 -8 12 C-8 10.35 -8 8.7 -8 7 C-7.34 7 -6.68 7 -6 7 C-5.71125 6.030625 -5.4225 5.06125 -5.125 4.0625 C-3.88188811 0.6784732 -3.56000107 0 0 0 Z " fill="#D8372E" transform="translate(185,132)"/>
<path d="M0 0 C2.64 0 5.28 0 8 0 C8 0.66 8 1.32 8 2 C8.66 2 9.32 2 10 2 C10 2.66 10 3.32 10 4 C10.9075 4.28875 11.815 4.5775 12.75 4.875 C15.32202908 5.76531776 17.61346766 6.71494413 20 8 C20 8.66 20 9.32 20 10 C20.99 10.33 21.98 10.66 23 11 C23.6875 13.0625 23.6875 13.0625 24 15 C19.33333333 12.66666667 14.66666667 10.33333333 10 8 C10 7.34 10 6.68 10 6 C6.7 5.34 3.4 4.68 0 4 C-0.33 6.31 -0.66 8.62 -1 11 C-1.33 11 -1.66 11 -2 11 C-2.28571429 3.57142857 -2.28571429 3.57142857 0 0 Z " fill="#C47F31" transform="translate(55,97)"/>
<path d="M0 0 C0.66 0.33 1.32 0.66 2 1 C-0.59836555 5.33060925 -2.67085362 7.51074083 -7 10 C-9.3856531 12.51818939 -10.83120127 14.1349065 -11.5 17.5625 C-12.15401357 20.75081618 -13.71975432 21.71975432 -16 24 C-16.56365755 25.21012736 -17.08293727 26.44165184 -17.5625 27.6875 C-18.036875 28.780625 -18.51125 29.87375 -19 31 C-19.99 31.33 -20.98 31.66 -22 32 C-22.70491267 34.32206525 -23.37212429 36.65593068 -24 39 C-24.99 39.495 -24.99 39.495 -26 40 C-23.63096804 24.48572971 -11.08573998 10.34669065 0 0 Z " fill="#DD5E52" transform="translate(32,23)"/>
<path d="M0 0 C7.59498961 -0.26442904 14.57359158 0.39118425 22 2 C22 2.66 22 3.32 22 4 C22.78375 4.12375 23.5675 4.2475 24.375 4.375 C27 5 27 5 29 7 C22.25 6.125 22.25 6.125 20 5 C18.6265365 4.84995027 17.2471474 4.75161994 15.8671875 4.68359375 C15.06152344 4.64169922 14.25585938 4.59980469 13.42578125 4.55664062 C12.58402344 4.51732422 11.74226563 4.47800781 10.875 4.4375 C10.02550781 4.39431641 9.17601562 4.35113281 8.30078125 4.30664062 C6.20071777 4.20045764 4.10038052 4.09971503 2 4 C2 6.31 2 8.62 2 11 C0 9 0 9 -0.1953125 6.8359375 C-0.17210938 6.02382812 -0.14890625 5.21171875 -0.125 4.375 C-0.10695313 3.55773437 -0.08890625 2.74046875 -0.0703125 1.8984375 C-0.04710938 1.27195313 -0.02390625 0.64546875 0 0 Z " fill="#FCE6BE" transform="translate(28,127)"/>
<path d="M0 0 C2.4375 1 2.4375 1 4 3 C4.76991754 5.78881242 4.9063932 8.05138586 5 11 C3 13 3 13 -0.22265625 13.23046875 C-2.12337891 13.20919922 -2.12337891 13.20919922 -4.0625 13.1875 C-5.33222656 13.18105469 -6.60195312 13.17460938 -7.91015625 13.16796875 C-11 13 -11 13 -12 12 C-12.57692308 4.96153846 -12.57692308 4.96153846 -10.5 1.5 C-6.95461944 -0.62722834 -4.03234651 -0.65411781 0 0 Z M-7.8125 3.125 C-9.49106106 5.77535957 -9.20450238 7.93246424 -9 11 C-5.49852959 12.1671568 -2.67329964 12.13357453 1 12 C1.66 11.67 2.32 11.34 3 11 C3 8.69 3 6.38 3 4 C-0.65569115 1.8336645 -3.99703988 0.75678338 -7.8125 3.125 Z " fill="#FEEBB9" transform="translate(129,83)"/>
<path d="M0 0 C0.495 0.99 0.495 0.99 1 2 C0.67 2.99 0.34 3.98 0 5 C-2.85860264 6.08419224 -5.55189353 6.93167059 -8.5 7.6875 C-9.76614136 8.01947388 -9.76614136 8.01947388 -11.05786133 8.3581543 C-19.42745115 10.38518263 -27.44656638 10.49283548 -36 10 C-36 9.67 -36 9.34 -36 9 C-34.94941406 8.89042969 -33.89882812 8.78085938 -32.81640625 8.66796875 C-25.19617552 7.82682753 -18.16391737 6.84752831 -11 4 C-8.98029148 3.26772348 -6.95942051 2.53864658 -4.9375 1.8125 C-3.29122324 1.20954267 -1.64522807 0.60581295 0 0 Z " fill="#D42B21" transform="translate(128,172)"/>
<path d="M0 0 C0.33 0.99 0.66 1.98 1 3 C1.6290625 2.855625 2.258125 2.71125 2.90625 2.5625 C12.57474843 0.46571721 20.37761662 1.01892107 30 3 C30.495 4.98 30.495 4.98 31 7 C30.44054687 6.7834375 29.88109375 6.566875 29.3046875 6.34375 C21.67766393 3.69513731 12.47819638 1.94220034 4.69140625 4.8671875 C2.65244009 6.03205625 2.65244009 6.03205625 0 8 C-2.4375 8.75 -2.4375 8.75 -4 9 C-4 7.68 -4 6.36 -4 5 C-6.97 4.505 -6.97 4.505 -10 4 C-10 3.67 -10 3.34 -10 3 C-6.7 3 -3.4 3 0 3 C0 2.01 0 1.02 0 0 Z " fill="#E89E38" transform="translate(81,114)"/>
<path d="M0 0 C3.78917187 2.1292833 6.95399588 4.53664078 10.1875 7.4375 C11.47720703 8.58025391 11.47720703 8.58025391 12.79296875 9.74609375 C15 12 15 12 17 16 C12.545 13.525 12.545 13.525 8 11 C8 11.66 8 12.32 8 13 C8.66 13 9.32 13 10 13 C9.67 13.99 9.34 14.98 9 16 C8.34 14.68 7.68 13.36 7 12 C2.545 12.495 2.545 12.495 -2 13 C1.06117568 10.37613513 1.73173127 10 6 10 C4.36587557 8.29159719 3.13093906 7.06546953 1 6 C0.375 2.9375 0.375 2.9375 0 0 Z " fill="#DA2F16" transform="translate(152,18)"/>
<path d="M0 0 C2.4375 1.6875 2.4375 1.6875 4 4 C4.25 7.25 4.25 7.25 4 10 C0.5233662 12.14336161 -2.21229195 12.21277626 -6.25 12.125 C-7.32765625 12.10695313 -8.4053125 12.08890625 -9.515625 12.0703125 C-10.33546875 12.04710938 -11.1553125 12.02390625 -12 12 C-13.34376918 4.67034991 -13.34376918 4.67034991 -11.75 1.5625 C-8.0144471 -1.77281509 -4.6070414 -1.05072874 0 0 Z M-11 2 C-11 4.31 -11 6.62 -11 9 C-8.35541621 10.32229189 -6.32238699 10.09677194 -3.375 10.0625 C-2.37210938 10.05347656 -1.36921875 10.04445313 -0.3359375 10.03515625 C0.43492188 10.02355469 1.20578125 10.01195313 2 10 C1.67 7.69 1.34 5.38 1 3 C-3.12339748 1.11501829 -6.7561951 -0.12190245 -11 2 Z " fill="#FCDFA3" transform="translate(70,84)"/>
<path d="M0 0 C0.99128906 -0.00257812 1.98257813 -0.00515625 3.00390625 -0.0078125 C5.4375 0.125 5.4375 0.125 6.4375 1.125 C6.640625 3.0859375 6.640625 3.0859375 6.6875 5.5 C6.71328125 6.29148437 6.7390625 7.08296875 6.765625 7.8984375 C6.36820018 10.59524878 5.51243465 11.43229015 3.4375 13.125 C2.7775 12.795 2.1175 12.465 1.4375 12.125 C1.911875 11.774375 2.38625 11.42375 2.875 11.0625 C5.11623825 8.28336457 5.10867658 5.6105283 5.4375 2.125 C1.80368307 2.74477129 -1.35722515 3.75545131 -4.75 5.1875 C-9.34897687 7.125 -9.34897687 7.125 -11.5625 7.125 C-11.8925 8.115 -12.2225 9.105 -12.5625 10.125 C-15.125 11.3125 -15.125 11.3125 -17.5625 12.125 C-17.5625 11.465 -17.5625 10.805 -17.5625 10.125 C-16.9025 10.125 -16.2425 10.125 -15.5625 10.125 C-15.2325 9.135 -14.9025 8.145 -14.5625 7.125 C-13.9025 7.125 -13.2425 7.125 -12.5625 7.125 C-12.2325 6.135 -11.9025 5.145 -11.5625 4.125 C-9.5 3.4375 -9.5 3.4375 -7.5625 3.125 C-7.5625 2.465 -7.5625 1.805 -7.5625 1.125 C-4.93920316 -0.18664842 -2.92551375 -0.00762846 0 0 Z " fill="#A96C33" transform="translate(132.5625,98.875)"/>
<path d="M0 0 C0.66 0 1.32 0 2 0 C0.5611898 3.387199 -1.22119499 5.3594104 -4 7.75 C-4.70125 8.36359375 -5.4025 8.9771875 -6.125 9.609375 C-8 11 -8 11 -10 11 C-10.66 12.32 -11.32 13.64 -12 15 C-12.66 15 -13.32 15 -14 15 C-14.268125 15.61875 -14.53625 16.2375 -14.8125 16.875 C-16 19 -16 19 -19 21 C-21.73990408 20.96856707 -24.28417854 20.44521663 -27 20 C-23 19 -23 19 -21 18.8125 C-17.86812273 17.54017486 -16.83831769 14.78373821 -15 12 C-11.90608487 8.92027715 -9.17149451 6.39049817 -5 5 C-4.67 4.34 -4.34 3.68 -4 3 C-3.01 2.67 -2.02 2.34 -1 2 C-0.67 1.34 -0.34 0.68 0 0 Z " fill="#FA8811" transform="translate(142,36)"/>
<path d="M0 0 C1.93242285 3.34520258 2.5463853 6.44767482 3.125 10.25 C3.29257812 11.32765625 3.46015625 12.4053125 3.6328125 13.515625 C3.75398438 14.33546875 3.87515625 15.1553125 4 16 C4.66 16 5.32 16 6 16 C5.85904936 17.6254308 5.71207913 19.25034051 5.5625 20.875 C5.48128906 21.77992187 5.40007813 22.68484375 5.31640625 23.6171875 C5 26 5 26 4 28 C3.34 28 2.68 28 2 28 C1.34 31.63 0.68 35.26 0 39 C-0.33 39 -0.66 39 -1 39 C-1.1799928 33.78020872 -0.97094808 29.92737019 1 25 C1.99 25 2.98 25 4 25 C3.87625 23.741875 3.7525 22.48375 3.625 21.1875 C3.55539063 20.47980469 3.48578125 19.77210937 3.4140625 19.04296875 C3.07334609 16.70011858 3.07334609 16.70011858 1 14 C-0.34956562 9.41147688 -0.09287103 4.7364224 0 0 Z " fill="#DC200F" transform="translate(31,70)"/>
<path d="M0 0 C3.87540045 -0.17615457 6.75515269 -0.28341107 10 2 C10.33 2.99 10.66 3.98 11 5 C12.97681603 5.46125707 14.9549571 5.91811041 16.94140625 6.3359375 C20.09748662 7.35402794 21.7869961 9.60756335 24 12 C26.66533035 13.319018 26.66533035 13.319018 29 14 C25.48438347 15.19252191 25.06166756 15.02764408 21.375 13.375 C19.91469075 12.58698406 18.45655517 11.7949335 17 11 C15.16980588 10.0770816 13.33644414 9.16041848 11.5 8.25 C10 7.5 8.5 6.75 7 6 C7 5.34 7 4.68 7 4 C6.21625 3.71125 5.4325 3.4225 4.625 3.125 C2 2 2 2 0 0 Z " fill="#F4CBC4" transform="translate(48,161)"/>
<path d="M0 0 C-0.33 0.99 -0.66 1.98 -1 3 C-2.02480469 3.19335938 -3.04960938 3.38671875 -4.10546875 3.5859375 C-5.46619601 3.84869863 -6.82687033 4.11173398 -8.1875 4.375 C-8.86103516 4.50132812 -9.53457031 4.62765625 -10.22851562 4.7578125 C-14.02904267 5.49937875 -17.42592902 6.53989995 -21 8 C-21.99 8 -22.98 8 -24 8 C-24.804375 8.350625 -25.60875 8.70125 -26.4375 9.0625 C-29.28390823 10.10386886 -30.19738668 9.85089958 -33 9 C-10.31067961 0 -10.31067961 0 0 0 Z " fill="#DA5D52" transform="translate(86,0)"/>
<path d="M0 0 C0.78503906 -0.020625 1.57007812 -0.04125 2.37890625 -0.0625 C4.65625 -0.078125 4.65625 -0.078125 8.5 0.25 C10.94897847 3.92346771 10.81537716 5.91356399 10.5 10.25 C9.84 10.91 9.18 11.57 8.5 12.25 C8.17 9.28 7.84 6.31 7.5 3.25 C5.20858714 3.19615479 2.91681812 3.15727913 0.625 3.125 C-0.65117188 3.10179687 -1.92734375 3.07859375 -3.2421875 3.0546875 C-6.58593338 2.89358476 -6.58593338 2.89358476 -8.5 5.25 C-8.89764263 7.23821313 -9.23775349 9.23944339 -9.5 11.25 C-9.83 11.25 -10.16 11.25 -10.5 11.25 C-10.5 7.95 -10.5 4.65 -10.5 1.25 C-7.21428629 -0.39285685 -3.60752467 0.02369474 0 0 Z " fill="#5E4E46" transform="translate(97.5,126.75)"/>
<path d="M0 0 C0.33 0 0.66 0 1 0 C1.125 7.75 1.125 7.75 0 10 C-0.66 10 -1.32 10 -2 10 C-2 12.31 -2 14.62 -2 17 C-1.34 17 -0.68 17 0 17 C0.33 18.65 0.66 20.3 1 22 C1.66 22 2.32 22 3 22 C3.33 25.63 3.66 29.26 4 33 C3.505 31.515 3.505 31.515 3 30 C2.34 30 1.68 30 1 30 C0.80664062 29.33613281 0.61328125 28.67226562 0.4140625 27.98828125 C0.15367187 27.10527344 -0.10671875 26.22226563 -0.375 25.3125 C-0.63023437 24.44238281 -0.88546875 23.57226562 -1.1484375 22.67578125 C-1.93577944 19.99437681 -1.93577944 19.99437681 -3.15625 17.5625 C-4.24261232 14.26317741 -3.7948841 12.07413628 -3.125 8.6875 C-2.92132813 7.61886719 -2.71765625 6.55023438 -2.5078125 5.44921875 C-2.34023437 4.64097656 -2.17265625 3.83273438 -2 3 C-1.34 3 -0.68 3 0 3 C0 2.01 0 1.02 0 0 Z " fill="#E03616" transform="translate(158,76)"/>
<path d="M0 0 C3.59346225 0.87694591 5.53274426 1.38439308 7.80859375 4.3828125 C8.34613281 5.28773437 8.88367188 6.19265625 9.4375 7.125 C12.15532653 10.82677547 13.24622844 11.87143795 17.84765625 12.65625 C21.59820495 12.73334338 25.27700539 12.43628843 29 12 C24.34088944 15.1060737 20.68708544 17.05094678 15 16 C9.25697369 12.02591077 4.31550186 6.46338155 0 1 C0 0.67 0 0.34 0 0 Z " fill="#DB150A" transform="translate(55,40)"/>
<path d="M0 0 C4.45976225 1.55851906 8.08558427 3.23126477 11.78125 6.203125 C11.45125 6.863125 11.12125 7.523125 10.78125 8.203125 C8.80125 7.543125 6.82125 6.883125 4.78125 6.203125 C4.78125 5.543125 4.78125 4.883125 4.78125 4.203125 C4.059375 4.079375 3.3375 3.955625 2.59375 3.828125 C-0.21875 3.203125 -0.21875 3.203125 -2.46875 2.140625 C-6.91343105 0.62539282 -12.04788468 0.14745741 -16.35546875 2.2421875 C-16.97035156 2.55929688 -17.58523437 2.87640625 -18.21875 3.203125 C-20.46875 2.828125 -20.46875 2.828125 -22.21875 2.203125 C-15.61115899 -2.46178476 -7.63595013 -1.89045367 0 0 Z " fill="#FCE4B1" transform="translate(105.21875,117.796875)"/>
<path d="M0 0 C5.61 0.33 11.22 0.66 17 1 C17.33 1.99 17.66 2.98 18 4 C11.72532201 5.0748291 7.09339169 4.88341198 1 3 C1 4.65 1 6.3 1 8 C0.67 8 0.34 8 0 8 C0 5.36 0 2.72 0 0 Z " fill="#F5E2DE" transform="translate(87,154)"/>
<path d="M0 0 C0.99 0 1.98 0 3 0 C3.21833744 5.51665927 2.4561002 10.28171833 1.125 15.625 C0.95097656 16.36234375 0.77695313 17.0996875 0.59765625 17.859375 C-0.33526543 21.71545127 -1.40058583 25.35448843 -3 29 C-3.33 29 -3.66 29 -4 29 C-4 27.02 -4 25.04 -4 23 C-3.34 23 -2.68 23 -2 23 C-1.34 15.41 -0.68 7.82 0 0 Z " fill="#D94D42" transform="translate(189,103)"/>
<path d="M0 0 C0 0.66 0 1.32 0 2 C1.32 2.33 2.64 2.66 4 3 C3.67 3.66 3.34 4.32 3 5 C0.69 4.01 -1.62 3.02 -4 2 C-4 1.34 -4 0.68 -4 0 C-6.18725251 -0.16988369 -8.37481701 -0.33575269 -10.5625 -0.5 C-11.78066406 -0.5928125 -12.99882813 -0.685625 -14.25390625 -0.78125 C-17.84634216 -0.99102728 -21.40247543 -1.03704015 -25 -1 C-17.78211017 -5.81192655 -7.06373967 -4.70915978 0 0 Z " fill="#F2B03A" transform="translate(54,129)"/>
<path d="M0 0 C6.19013532 5.62739575 12.04198104 12.73280883 14 21 C12.1875 20.9375 12.1875 20.9375 10 20 C8.18721244 16.5039097 7 13.96018245 7 10 C6.38125 9.95875 5.7625 9.9175 5.125 9.875 C4.073125 9.441875 4.073125 9.441875 3 9 C1.8125 6.125 1.8125 6.125 1 3 C0.67 2.01 0.34 1.02 0 0 Z " fill="#DD5C50" transform="translate(169,34)"/>
<path d="M0 0 C1.32 0.33 2.64 0.66 4 1 C2.37660195 2.70884005 0.70680947 4.37446717 -1 6 C-1.66 6 -2.32 6 -3 6 C-3.33 6.99 -3.66 7.98 -4 9 C-4.99 9 -5.98 9 -7 9 C-7 9.66 -7 10.32 -7 11 C-9.90548882 13.04169485 -11.40142046 14 -15 14 C-15 13.01 -15 12.02 -15 11 C-13.68 11 -12.36 11 -11 11 C-11 10.34 -11 9.68 -11 9 C-8.55400767 6.11722332 -6.78611227 4.54087318 -3 4 C-3 3.34 -3 2.68 -3 2 C-1.68 2.33 -0.36 2.66 1 3 C0.67 2.01 0.34 1.02 0 0 Z " fill="#F8E3DF" transform="translate(147,154)"/>
<path d="M0 0 C-0.33 0.99 -0.66 1.98 -1 3 C-1.66 3 -2.32 3 -3 3 C-3.33 3.99 -3.66 4.98 -4 6 C-4.99 6 -5.98 6 -7 6 C-7.33 6.99 -7.66 7.98 -8 9 C-9.63064764 10.05771739 -11.30280873 11.05273046 -13 12 C-14.34631825 12.98244845 -15.68441297 13.97676564 -17 15 C-17 14.01 -17 13.02 -17 12 C-16.34 12 -15.68 12 -15 12 C-14.6596875 11.1646875 -14.6596875 11.1646875 -14.3125 10.3125 C-11.15845398 4.7553713 -6.46178297 0 0 0 Z " fill="#DE2710" transform="translate(145,33)"/>
<path d="M0 0 C0.66 0 1.32 0 2 0 C6.57446809 17.14893617 6.57446809 17.14893617 7 26 C2.08248484 18.62372727 0.60239111 8.7346711 0 0 Z " fill="#D64B41" transform="translate(0,106)"/>
<path d="M0 0 C0.99 0.33 1.98 0.66 3 1 C3 2.32 3 3.64 3 5 C3.66 5 4.32 5 5 5 C8 10.75 8 10.75 8 13 C8.99 13 9.98 13 11 13 C11 13.99 11 14.98 11 16 C13.475 16.99 13.475 16.99 16 18 C15.67 19.32 15.34 20.64 15 22 C10.59522185 18.87604386 8.04873308 15.50435829 5.25 11 C4.85167969 10.38382813 4.45335937 9.76765625 4.04296875 9.1328125 C2.16483532 6.16599834 0.52630157 3.50867711 0 0 Z " fill="#D95549" transform="translate(9,137)"/>
<path d="M0 0 C0 0.99 0 1.98 0 3 C-0.92039063 2.96519531 -1.84078125 2.93039063 -2.7890625 2.89453125 C-12.01709096 2.69719052 -20.01512113 3.67417619 -29 6 C-22.26849367 -1.8024278 -9.33007924 -0.3399624 0 0 Z " fill="#FEF2CC" transform="translate(163,129)"/>
<path d="M0 0 C0.66 0 1.32 0 2 0 C5.25371901 23.30082645 5.25371901 23.30082645 0 33 C-0.99 33.495 -0.99 33.495 -2 34 C-1.24003154 28.42689795 -1.24003154 28.42689795 0.04052734 26.14941406 C1.27621799 23.38121548 1.13713244 21.37808986 0.9765625 18.359375 C0.925 17.28945312 0.8734375 16.21953125 0.8203125 15.1171875 C0.75585938 14.00601563 0.69140625 12.89484375 0.625 11.75 C0.56828125 10.62335938 0.5115625 9.49671875 0.453125 8.3359375 C0.31180452 5.55663472 0.16040592 2.7782559 0 0 Z " fill="#DE3519" transform="translate(162,110)"/>
<path d="M0 0 C1.32 0.33 2.64 0.66 4 1 C4.04898438 1.59167969 4.09796875 2.18335937 4.1484375 2.79296875 C4.56456867 7.19104472 5.04965595 10.96928897 7 15 C4.66705225 15.04241723 2.33297433 15.04092937 0 15 C-0.33 14.67 -0.66 14.34 -1 14 C-2.51469448 13.76807135 -4.03754562 13.58784762 -5.5625 13.4375 C-6.38878906 13.35371094 -7.21507813 13.26992187 -8.06640625 13.18359375 C-8.70449219 13.12300781 -9.34257813 13.06242187 -10 13 C-10 12.67 -10 12.34 -10 12 C-9.21753906 11.93941406 -8.43507813 11.87882812 -7.62890625 11.81640625 C-6.61699219 11.73261719 -5.60507813 11.64882812 -4.5625 11.5625 C-3.55316406 11.48128906 -2.54382813 11.40007812 -1.50390625 11.31640625 C0.93640779 11.26788532 0.93640779 11.26788532 2 10 C1.63252506 4.8238097 1.63252506 4.8238097 0 0 Z " fill="#F1AA33" transform="translate(131,84)"/>
<path d="M0 0 C0.96585002 2.68291674 0.95940709 4.27964006 0.54296875 7.1484375 C-0.01940416 11.13764388 -0.21940196 15.0426828 -0.25 19.0625 C-0.270625 19.74376953 -0.29125 20.42503906 -0.3125 21.12695312 C-0.34907957 25.88686955 0.76200611 28.86217064 3 33 C2.67 33.66 2.34 34.32 2 35 C-1 31.375 -1 31.375 -1 28 C-1.66 28 -2.32 28 -3 28 C-2.88909054 24.64521419 -2.75871222 21.29144824 -2.625 17.9375 C-2.5940625 16.99455078 -2.563125 16.05160156 -2.53125 15.08007812 C-2.30731646 9.72433421 -1.73292417 5.07901759 0 0 Z " fill="#DE4A34" transform="translate(29,109)"/>
<path d="M0 0 C2.31 0 4.62 0 7 0 C7 1.65 7 3.3 7 5 C6.01 5.33 5.02 5.66 4 6 C3.67 7.65 3.34 9.3 3 11 C2.34 11 1.68 11 1 11 C0.67 7.37 0.34 3.74 0 0 Z " fill="#3F322B" transform="translate(108,151)"/>
<path d="M0 0 C0.66 0 1.32 0 2 0 C2 0.66 2 1.32 2 2 C2.78375 2.28875 3.5675 2.5775 4.375 2.875 C7 4 7 4 9 6 C9.125 8.625 9.125 8.625 9 11 C7.62437146 9.71034824 6.29233607 8.37310707 5 7 C5 6.34 5 5.68 5 5 C4.01 5.495 4.01 5.495 3 6 C2.67 11.94 2.34 17.88 2 24 C1.67 24 1.34 24 1 24 C0.67 16.08 0.34 8.16 0 0 Z " fill="#E20D07" transform="translate(163,32)"/>
<path d="M0 0 C2.16078773 3.24118159 3.34884727 6.28209585 4.6875 9.9375 C5.14511719 11.16339844 5.60273438 12.38929687 6.07421875 13.65234375 C6.93811367 16.77621693 7.21062031 18.07249999 6 21 C5.34 21 4.68 21 4 21 C3.87882813 20.39671875 3.75765625 19.7934375 3.6328125 19.171875 C3.46523437 18.37265625 3.29765625 17.5734375 3.125 16.75 C2.96257812 15.96109375 2.80015625 15.1721875 2.6328125 14.359375 C2.08972805 11.99173872 2.08972805 11.99173872 0.9375 9.96875 C-0.62776927 6.68168452 -0.11986486 3.59594586 0 0 Z " fill="#DB5348" transform="translate(183,55)"/>
<path d="M0 0 C0 4.22986354 -2.35727181 6.44836223 -4.875 9.625 C-5.33519531 10.223125 -5.79539063 10.82125 -6.26953125 11.4375 C-9.72243159 15.86121579 -9.72243159 15.86121579 -12 17 C-12 15.35 -12 13.7 -12 12 C-10.68 11.34 -9.36 10.68 -8 10 C-8 9.01 -8 8.02 -8 7 C-7.01 7 -6.02 7 -5 7 C-5 6.01 -5 5.02 -5 4 C-4.01 4 -3.02 4 -2 4 C-1.34 2.68 -0.68 1.36 0 0 Z " fill="#D9574C" transform="translate(177,146)"/>
<path d="M0 0 C-1.58143471 1.43958847 -3.16522779 2.87658645 -4.75 4.3125 C-5.63171875 5.11300781 -6.5134375 5.91351563 -7.421875 6.73828125 C-9.55449328 8.60916911 -11.70187943 10.34084286 -14 12 C-14.66 11.67 -15.32 11.34 -16 11 C-15.67 10.01 -15.34 9.02 -15 8 C-12.4375 6.8125 -12.4375 6.8125 -10 6 C-10 5.34 -10 4.68 -10 4 C-9.34 4 -8.68 4 -8 4 C-7.71125 3.360625 -7.4225 2.72125 -7.125 2.0625 C-5.18025038 -1.5028743 -3.54277596 -1.06283279 0 0 Z " fill="#DA5147" transform="translate(165,164)"/>
<path d="M0 0 C2.5 1.5 2.5 1.5 4 3 C3.67 3.99 3.34 4.98 3 6 C3 5.34 3 4.68 3 4 C-0.68379022 2.82118713 -4.15541573 2.78641199 -8 3 C-10.31563087 4.88500271 -10.31563087 4.88500271 -10.25 8 C-10.31563087 11.11499729 -10.31563087 11.11499729 -8 13 C-9.32 12.67 -10.64 12.34 -12 12 C-12.48 4.8 -12.48 4.8 -10.5 1.5 C-6.98847281 -0.60691631 -4.0001692 -0.71314492 0 0 Z " fill="#F9D693" transform="translate(129,83)"/>
<path d="M0 0 C1.65 0 3.3 0 5 0 C2.30469655 3.2068209 -1.18498777 4.81451583 -4.875 6.625 C-5.48730469 6.93695313 -6.09960938 7.24890625 -6.73046875 7.5703125 C-10.12836246 9.25834535 -13.23678579 10.47057443 -17 11 C-16.67 10.01 -16.34 9.02 -16 8 C-13.36 7.67 -10.72 7.34 -8 7 C-8 6.34 -8 5.68 -8 5 C-6.02 4.67 -4.04 4.34 -2 4 C-2 3.34 -2 2.68 -2 2 C-1.34 2 -0.68 2 0 2 C0 1.34 0 0.68 0 0 Z " fill="#D85F52" transform="translate(144,176)"/>
<path d="M0 0 C0.99 0 1.98 0 3 0 C3.185625 0.928125 3.37125 1.85625 3.5625 2.8125 C5.10727559 6.23787197 5.38621238 6.5205979 8.625 7.875 C9.73875 8.24625 10.8525 8.6175 12 9 C10 10 10 10 7.8359375 9.44140625 C7.02382812 9.15136719 6.21171875 8.86132812 5.375 8.5625 C4.55773437 8.27503906 3.74046875 7.98757812 2.8984375 7.69140625 C2.27195312 7.46324219 1.64546875 7.23507813 1 7 C0.67 7.33 0.34 7.66 0 8 C-2.33297433 8.04092937 -4.66705225 8.04241723 -7 8 C-7 7.67 -7 7.34 -7 7 C-5.02 6.34 -3.04 5.68 -1 5 C-0.67 3.35 -0.34 1.7 0 0 Z " fill="#56463E" transform="translate(97,144)"/>
<path d="M0 0 C-0.33 0.99 -0.66 1.98 -1 3 C-2.65 3 -4.3 3 -6 3 C-6 3.66 -6 4.32 -6 5 C-6.66 5 -7.32 5 -8 5 C-8 5.66 -8 6.32 -8 7 C-9.98 7.33 -11.96 7.66 -14 8 C-14 8.66 -14 9.32 -14 10 C-16.31 10.33 -18.62 10.66 -21 11 C-21 10.34 -21 9.68 -21 9 C-17.49223216 7.39644899 -14.85645121 6.77963136 -11 7 C-11 6.34 -11 5.68 -11 5 C-2.29032258 0 -2.29032258 0 0 0 Z " fill="#D4150E" transform="translate(150,173)"/>
<path d="M0 0 C0.33 0.66 0.66 1.32 1 2 C0.06421005 4.35981813 -0.93347808 6.69631264 -2 9 C-8.625 8.25 -8.625 8.25 -12 6 C-12.6875 3.375 -12.6875 3.375 -13 1 C-9.56404834 2.52708963 -6.88087546 4.59927045 -4 7 C-3.525625 6.030625 -3.05125 5.06125 -2.5625 4.0625 C-1 1 -1 1 0 0 Z " fill="#FDECC1" transform="translate(70,133)"/>
<path d="M0 0 C5.28082895 0.1167034 10.40304462 1.18775919 15.5625 2.25 C15.8925 3.57 16.2225 4.89 16.5625 6.25 C15.97984375 6.04503906 15.3971875 5.84007813 14.796875 5.62890625 C8.05746004 3.41422429 1.63302165 2.60231122 -5.4375 2.25 C-3.4375 0.25 -3.4375 0.25 0 0 Z " fill="#F1B141" transform="translate(95.4375,114.75)"/>
<path d="M0 0 C8.35007584 0.29145116 15.30195552 1.74196936 23 5 C20.00126754 5.93380478 18.00940139 6.01219194 14.9609375 5.29296875 C14.21585938 5.11830078 13.47078125 4.94363281 12.703125 4.76367188 C11.93484375 4.57353516 11.1665625 4.38339844 10.375 4.1875 C9.59898438 4.00896484 8.82296875 3.83042969 8.0234375 3.64648438 C2.26086607 2.26086607 2.26086607 2.26086607 0 0 Z " fill="#DC6054" transform="translate(63,186)"/>
<path d="M0 0 C3 2 3 2 3.875 3.8125 C5.76965721 7.49655568 8.54472557 10.27236279 12.25 12.125 C12.8275 12.41375 13.405 12.7025 14 13 C14.33 13.99 14.66 14.98 15 16 C10.11868446 15.21898951 7.74834745 14.21020757 4.6875 10.25 C2.45022952 6.98060207 0.96793278 3.87173112 0 0 Z " fill="#D65448" transform="translate(32,144)"/>
<path d="M0 0 C0.33 0 0.66 0 1 0 C1 2.31 1 4.62 1 7 C4.96 7.33 8.92 7.66 13 8 C12.67 8.66 12.34 9.32 12 10 C8.04 10 4.08 10 0 10 C-1.125 2.25 -1.125 2.25 0 0 Z " fill="#FDE9B6" transform="translate(58,86)"/>
<path d="M0 0 C0 3.22340429 -0.56378908 5.86693278 -1.3125 9 C-1.55613281 10.051875 -1.79976562 11.10375 -2.05078125 12.1875 C-2.99037648 14.97148586 -3.74824075 16.18345473 -6 18 C-7.65 16.68 -9.3 15.36 -11 14 C-10.67 13.34 -10.34 12.68 -10 12 C-8.35 12.33 -6.7 12.66 -5 13 C-3.77105172 10.10319335 -2.79726165 7.28445286 -1.9375 4.25 C-1 1 -1 1 0 0 Z " fill="#FB8F0D" transform="translate(155,61)"/>
<path d="M0 0 C2.875 0.3125 2.875 0.3125 6 1 C6.66 1.99 7.32 2.98 8 4 C9.94832935 5.00168531 9.94832935 5.00168531 12.125 5.6875 C12.84945312 5.93886719 13.57390625 6.19023437 14.3203125 6.44921875 C14.87460937 6.63097656 15.42890625 6.81273437 16 7 C16 7.99 16 8.98 16 10 C8.50730689 8.58246347 8.50730689 8.58246347 6.3125 6.0625 C5 4 5 4 5 2 C3.35 1.67 1.7 1.34 0 1 C0 0.67 0 0.34 0 0 Z " fill="#D63229" transform="translate(47,176)"/>
<path d="M0 0 C0.99 0.33 1.98 0.66 3 1 C-11.8109029 9.67397785 -11.8109029 9.67397785 -19 9 C-16.64031256 6.90250005 -15.45383006 6.03094296 -12.25 5.8125 C-11.13625 5.9053125 -11.13625 5.9053125 -10 6 C-10 5.34 -10 4.68 -10 4 C-8.906875 3.71125 -7.81375 3.4225 -6.6875 3.125 C-2.95986155 2.18106796 -2.95986155 2.18106796 0 0 Z " fill="#F1BAB2" transform="translate(131,168)"/>
<path d="M0 0 C0.66 0 1.32 0 2 0 C2.061875 0.78375 2.12375 1.5675 2.1875 2.375 C2.455625 3.24125 2.72375 4.1075 3 5 C4.65438613 5.69658363 6.32254318 6.36096883 8 7 C9.8125 9.625 9.8125 9.625 11 12 C9.68 12.33 8.36 12.66 7 13 C6.01364163 11.58833114 5.03618745 10.17043816 4.0625 8.75 C3.51722656 7.96109375 2.97195312 7.1721875 2.41015625 6.359375 C1.10377559 4.17363007 0.45019489 2.4846199 0 0 Z " fill="#F7D9D4" transform="translate(30,138)"/>
<path d="M0 0 C0.66 0 1.32 0 2 0 C1.42655063 2.86724686 1.1385485 3.8614515 -1 6 C-3.49609375 5.828125 -3.49609375 5.828125 -6.4375 5.25 C-7.40558594 5.06953125 -8.37367187 4.8890625 -9.37109375 4.703125 C-12 4 -12 4 -15 2 C-10.05 2.33 -5.1 2.66 0 3 C0 2.01 0 1.02 0 0 Z " fill="#DD1F0F" transform="translate(123,50)"/>
<path d="M0 0 C0.33 0 0.66 0 1 0 C1 5.94 1 11.88 1 18 C0.01 17.67 -0.98 17.34 -2 17 C-1.85786703 15.10388566 -1.71113093 13.20811606 -1.5625 11.3125 C-1.48128906 10.25675781 -1.40007813 9.20101562 -1.31640625 8.11328125 C-1.03548319 5.34913703 -0.59843148 2.71054259 0 0 Z " fill="#D7130B" transform="translate(26,116)"/>
<path d="M0 0 C4.95 0.99 4.95 0.99 10 2 C10 2.66 10 3.32 10 4 C10.99 4.33 11.98 4.66 13 5 C13.6875 7.0625 13.6875 7.0625 14 9 C9.33333333 6.66666667 4.66666667 4.33333333 0 2 C0 1.34 0 0.68 0 0 Z " fill="#A76A30" transform="translate(65,103)"/>
<path d="M0 0 C-1 2 -1 2 -2.9375 2.6875 C-5 3 -5 3 -7 2 C-7.66 3.65 -8.32 5.3 -9 7 C-9.99 6.67 -10.98 6.34 -12 6 C-12.99 6 -13.98 6 -15 6 C-14 3 -14 3 -12.109375 2.05078125 C-4.24325381 -0.41063747 -4.24325381 -0.41063747 0 0 Z " fill="#F88810" transform="translate(159,30)"/>
<path d="M0 0 C0.66 0.33 1.32 0.66 2 1 C-0.60867604 5.3477934 -2.68403549 7.47358175 -7 10 C-8.80952245 11.91334751 -10.37984057 13.91693787 -12 16 C-12 11.68945634 -9.38987567 9.82500039 -6.5625 6.875 C-6.04623047 6.32457031 -5.52996094 5.77414063 -4.99804688 5.20703125 C-3.35015241 3.45358537 -1.70164017 1.70164017 0 0 Z " fill="#DE695E" transform="translate(32,23)"/>
<path d="M0 0 C-3.38152192 1.89796206 -6.73436548 2.80223042 -10.5 3.6875 C-11.6240625 3.95949219 -12.748125 4.23148438 -13.90625 4.51171875 C-16.7684642 4.9634571 -18.32241337 4.97784414 -21 4 C-7.55125285 -0.59225513 -7.55125285 -0.59225513 0 0 Z " fill="#DC6055" transform="translate(127,187)"/>
<path d="M0 0 C4.6182583 0.54792895 7.98149647 2.58964488 11.8125 5.0625 C12.40998047 5.43955078 13.00746094 5.81660156 13.62304688 6.20507812 C15.08636577 7.12989566 16.54379523 8.06402065 18 9 C16 10 16 10 12.875 9.0625 C11.451875 8.5365625 11.451875 8.5365625 10 8 C10 7.34 10 6.68 10 6 C9.34 6 8.68 6 8 6 C8 5.34 8 4.68 8 4 C7.05125 3.71125 6.1025 3.4225 5.125 3.125 C2 2 2 2 0 0 Z " fill="#DD665C" transform="translate(134,8)"/>
<path d="M0 0 C0 3.63327194 -0.95586411 5.04735927 -3 8 C-7.1795645 10.78637633 -9.14668677 9.79562512 -14 9 C-10 8 -10 8 -8 7.8125 C-4.83413915 6.52636903 -3.76391778 3.82226845 -2 1 C-1.34 0.67 -0.68 0.34 0 0 Z " fill="#EF6219" transform="translate(129,47)"/>
<path d="M0 0 C0 1.65 0 3.3 0 5 C-0.33 4.01 -0.66 3.02 -1 2 C-1.66 2 -2.32 2 -3 2 C-3.226875 2.721875 -3.45375 3.44375 -3.6875 4.1875 C-5.24831013 7.53209313 -7.3031287 9.51603959 -10 12 C-9.55396127 6.94489444 -7.35299176 4.59833262 -4 1 C-2 0 -2 0 0 0 Z " fill="#D8140C" transform="translate(30,30)"/>
<path d="M0 0 C0.66 0.33 1.32 0.66 2 1 C-1.63 4.63 -5.26 8.26 -9 12 C-9 8.40142046 -8.04169485 6.90548882 -6 4 C-5.34 4 -4.68 4 -4 4 C-4 3.34 -4 2.68 -4 2 C-2.125 0.9375 -2.125 0.9375 0 0 Z " fill="#FDE4B1" transform="translate(81,121)"/>
<path d="M0 0 C0.33 0 0.66 0 1 0 C0.50587882 4.74356337 -0.53434095 8.64599711 -2.30078125 13.06640625 C-3.2405419 15.6651857 -3.65813632 18.26509053 -4 21 C-4.33 21 -4.66 21 -5 21 C-5.4907753 13.47477866 -3.51571411 6.64928537 0 0 Z " fill="#CE1C13" transform="translate(8,59)"/>
<path d="M0 0 C1.32 0.33 2.64 0.66 4 1 C2.380981 4.238038 0.35771653 4.76294654 -3 6 C-6.3859589 5.95963089 -9.661363 5.54764204 -13 5 C-13 4.67 -13 4.34 -13 4 C-11.71802734 3.81824219 -11.71802734 3.81824219 -10.41015625 3.6328125 C-9.30542969 3.46523438 -8.20070313 3.29765625 -7.0625 3.125 C-5.96035156 2.96257812 -4.85820313 2.80015625 -3.72265625 2.6328125 C-2.37494141 2.31957031 -2.37494141 2.31957031 -1 2 C-0.67 1.34 -0.34 0.68 0 0 Z M-8 6 C-6 7 -6 7 -6 7 Z " fill="#E4110A" transform="translate(86,0)"/>
<path d="M0 0 C0.33 0.66 0.66 1.32 1 2 C1.66 2 2.32 2 3 2 C3.67408308 3.26691507 4.33900497 4.53870749 5 5.8125 C5.556875 6.87404297 5.556875 6.87404297 6.125 7.95703125 C7 10 7 10 7 13 C6.34 13 5.68 13 5 13 C2.95830515 10.09451118 2 8.59857954 2 5 C1.34 5 0.68 5 0 5 C0 3.35 0 1.7 0 0 Z " fill="#D6130B" transform="translate(12,137)"/>
<path d="M0 0 C0.33 0 0.66 0 1 0 C1.125 7.75 1.125 7.75 0 10 C-0.66 10 -1.32 10 -2 10 C-2 11.65 -2 13.3 -2 15 C-2.66 15 -3.32 15 -4 15 C-3.34 11.04 -2.68 7.08 -2 3 C-1.34 3 -0.68 3 0 3 C0 2.01 0 1.02 0 0 Z " fill="#DD2110" transform="translate(158,76)"/>
<path d="M0 0 C0 0.66 0 1.32 0 2 C-0.99 2 -1.98 2 -3 2 C-3.20625 2.78375 -3.4125 3.5675 -3.625 4.375 C-5 7 -5 7 -7.9375 8.3125 C-11 9 -11 9 -14 9 C-12.37680325 7.68527053 -10.751385 6.37328338 -9.125 5.0625 C-8.22007813 4.33160156 -7.31515625 3.60070312 -6.3828125 2.84765625 C-2.71035941 0 -2.71035941 0 0 0 Z " fill="#DB5C50" transform="translate(48,13)"/>
<path d="M0 0 C4.16138263 -0.08159574 7.9472484 0.01751476 12 1 C10.875 2.5 10.875 2.5 9 4 C4.92205575 4.42478586 3.46923881 4.31282587 0 2 C0 1.34 0 0.68 0 0 Z " fill="#DC3B30" transform="translate(103,0)"/>
<path d="M0 0 C0.33 0.66 0.66 1.32 1 2 C0.01 2.66 -0.98 3.32 -2 4 C-3.13464018 5.68704236 -3.13464018 5.68704236 -4.0625 7.5625 C-6 11 -6 11 -8 12 C-8.33 10.35 -8.66 8.7 -9 7 C-7.35 6.67 -5.7 6.34 -4 6 C-3.67 4.35 -3.34 2.7 -3 1 C-2.01 0.67 -1.02 0.34 0 0 Z " fill="#F3B03B" transform="translate(76,123)"/>
<path d="M0 0 C0.5775 0.226875 1.155 0.45375 1.75 0.6875 C-1.22 3.1625 -1.22 3.1625 -4.25 5.6875 C-3.26 6.3475 -2.27 7.0075 -1.25 7.6875 C-3.56 7.6875 -5.87 7.6875 -8.25 7.6875 C-6.86345583 3.41232214 -5.12511737 -0.71182186 0 0 Z " fill="#DC110A" transform="translate(40.25,20.3125)"/>
<path d="M0 0 C0.66 0 1.32 0 2 0 C2.391875 0.825 2.78375 1.65 3.1875 2.5 C5.24950424 6.48180129 7.57897059 10.22970123 10 14 C9.01 14.33 8.02 14.66 7 15 C6.54625 13.865625 6.0925 12.73125 5.625 11.5625 C4.42904194 7.95278308 4.42904194 7.95278308 2 7 C1.26924352 4.6859378 0.59861742 2.35171131 0 0 Z " fill="#D4140D" transform="translate(26,137)"/>
<path d="M0 0 C1.25425781 0.02707031 2.50851563 0.05414063 3.80078125 0.08203125 C4.75339844 0.11683594 5.70601562 0.15164062 6.6875 0.1875 C6.6875 0.5175 6.6875 0.8475 6.6875 1.1875 C5.93984375 1.23648438 5.1921875 1.28546875 4.421875 1.3359375 C3.43703125 1.41070312 2.4521875 1.48546875 1.4375 1.5625 C-0.02429688 1.66691406 -0.02429688 1.66691406 -1.515625 1.7734375 C-4.22850643 2.1750652 -5.9187868 2.92765095 -8.3125 4.1875 C-10.5625 3.8125 -10.5625 3.8125 -12.3125 3.1875 C-8.11677648 0.13095954 -5.13357724 -0.14393207 0 0 Z " fill="#FBDEA1" transform="translate(95.3125,116.8125)"/>
<path d="M0 0 C3 0 3 0 5 1 C3.68 2.32 2.36 3.64 1 5 C0.67 3.35 0.34 1.7 0 0 Z M1 5 C-0.39332574 8.36720387 -1.9789286 9.9859524 -5 12 C-4.39816251 9.97954558 -3.72693904 7.97888961 -3 6 C-1 5 -1 5 1 5 Z " fill="#FA930E" transform="translate(47,67)"/>
<path d="M0 0 C0 0.99 0 1.98 0 3 C1.093125 3.28875 2.18625 3.5775 3.3125 3.875 C7 5 7 5 10 7 C9.31292969 6.88140625 8.62585937 6.7628125 7.91796875 6.640625 C7.01691406 6.51171875 6.11585937 6.3828125 5.1875 6.25 C4.29417969 6.11078125 3.40085937 5.9715625 2.48046875 5.828125 C-0.16771219 5.72597472 -0.16771219 5.72597472 -1.82421875 7.984375 C-2.21222656 8.64953125 -2.60023437 9.3146875 -3 10 C-2.25 2.25 -2.25 2.25 0 0 Z " fill="#DA2D16" transform="translate(33,24)"/>
<path d="M0 0 C-0.33 0.99 -0.66 1.98 -1 3 C-4.67566856 4.61729417 -9.07239675 4.06546005 -13 4 C-8.77894053 0.40428268 -5.4674729 0 0 0 Z " fill="#D2433A" transform="translate(86,0)"/>
<path d="M0 0 C0.66 0.33 1.32 0.66 2 1 C-0.69847784 4.79785771 -2.60868461 6.49770789 -7 8 C-7.66 8.66 -8.32 9.32 -9 10 C-9.66 9.34 -10.32 8.68 -11 8 C-9.73608512 6.99126984 -8.46359117 5.99328178 -7.1875 5 C-6.47980469 4.443125 -5.77210938 3.88625 -5.04296875 3.3125 C-3 2 -3 2 0 2 C0 1.34 0 0.68 0 0 Z " fill="#D85146" transform="translate(140,163)"/>
<path d="M0 0 C1 2 1 2 0.5 3.8125 C-1.66589658 6.97109918 -4.54909741 9.31682034 -8 11 C-8.99 10.67 -9.98 10.34 -11 10 C-10.2575 9.62875 -9.515 9.2575 -8.75 8.875 C-5.52269039 6.67456163 -4.06580434 4.27679309 -2 1 C-1.34 0.67 -0.68 0.34 0 0 Z " fill="#DB5E51" transform="translate(155,150)"/>
<path d="M0 0 C0 0.66 0 1.32 0 2 C-2.90600261 3.25664978 -4.79604584 4 -8 4 C-8 4.66 -8 5.32 -8 6 C-9.65 6.33 -11.3 6.66 -13 7 C-12 4 -12 4 -10.29296875 2.83203125 C-9.25076172 2.32736328 -9.25076172 2.32736328 -8.1875 1.8125 C-7.50042969 1.46832031 -6.81335938 1.12414062 -6.10546875 0.76953125 C-4 0 -4 0 0 0 Z " fill="#DF1108" transform="translate(158,26)"/>
<path d="M0 0 C3.96 0 7.92 0 12 0 C12 0.66 12 1.32 12 2 C7.6835078 2.76173392 4.25566547 3.16063604 0 2 C0 1.34 0 0.68 0 0 Z " fill="#56443B" transform="translate(91,156)"/>
<path d="M0 0 C0.77730469 0.32484375 1.55460937 0.6496875 2.35546875 0.984375 C3.14566406 1.29890625 3.93585938 1.6134375 4.75 1.9375 C5.34167969 2.20046875 5.93335937 2.4634375 6.54296875 2.734375 C6.54296875 3.064375 6.54296875 3.394375 6.54296875 3.734375 C1.92296875 3.734375 -2.69703125 3.734375 -7.45703125 3.734375 C-2.45703125 -0.265625 -2.45703125 -0.265625 0 0 Z " fill="#18100E" transform="translate(100.45703125,150.265625)"/>
<path d="M0 0 C4.29 2.31 8.58 4.62 13 7 C13 7.33 13 7.66 13 8 C10.69 8 8.38 8 6 8 C6 7.01 6 6.02 6 5 C5.195625 4.731875 4.39125 4.46375 3.5625 4.1875 C2.716875 3.795625 1.87125 3.40375 1 3 C0.67 2.01 0.34 1.02 0 0 Z " fill="#A56A34" transform="translate(54,108)"/>
<path d="M0 0 C0.33 0 0.66 0 1 0 C0.54240047 6.5508985 -0.2100144 12.6753842 -2 19 C-3.88785869 12.85381342 -2.85474845 5.70949691 0 0 Z " fill="#F06618" transform="translate(160,60)"/>
<path d="M0 0 C-3.14573677 2.09715785 -5.01456251 2.52004559 -8.6875 3.125 C-10.17830078 3.37636719 -10.17830078 3.37636719 -11.69921875 3.6328125 C-12.45847656 3.75398438 -13.21773438 3.87515625 -14 4 C-14.33 3.01 -14.66 2.02 -15 1 C-9.92928099 0.28832014 -5.11791642 -0.10662326 0 0 Z " fill="#DB2411" transform="translate(84,52)"/>
<path d="M0 0 C1.7717719 0.06016203 3.54258679 0.14899328 5.3125 0.25 C6.79169922 0.31960937 6.79169922 0.31960937 8.30078125 0.390625 C11 1 11 1 12.85546875 3.046875 C13.23316406 3.69140625 13.61085938 4.3359375 14 5 C9.16371695 4.00956295 4.52381127 3.04301154 0 1 C0 0.67 0 0.34 0 0 Z " fill="#D91B11" transform="translate(75,187)"/>
<path d="M0 0 C1.66842534 0.32441604 3.33480481 0.65939189 5 1 C5.70125 1.0825 6.4025 1.165 7.125 1.25 C9.92933031 2.37173213 10.66319435 4.39322899 12 7 C7.39104317 5.68315519 3.85859765 3.84801255 0 1 C0 0.67 0 0.34 0 0 Z " fill="#DB5F55" transform="translate(43,176)"/>
<path d="M0 0 C0.66 0.33 1.32 0.66 2 1 C1.21625 1.763125 0.4325 2.52625 -0.375 3.3125 C-3.07257717 5.90891805 -3.07257717 5.90891805 -5 9 C-6.32 8.67 -7.64 8.34 -9 8 C-8 5 -8 5 -5.0625 3.4375 C-4.051875 2.963125 -3.04125 2.48875 -2 2 C-1.34 1.34 -0.68 0.68 0 0 Z " fill="#DF0C07" transform="translate(141,165)"/>
<path d="M0 0 C0.66 0.33 1.32 0.66 2 1 C0.59785066 2.36919284 -0.82228473 3.71998709 -2.25 5.0625 C-3.43335938 6.19365234 -3.43335938 6.19365234 -4.640625 7.34765625 C-7 9 -7 9 -9.296875 8.74609375 C-9.85890625 8.49988281 -10.4209375 8.25367188 -11 8 C-8.21727004 4.72620005 -4.70883468 3.06046371 -1 1 C-0.67 0.67 -0.34 0.34 0 0 Z " fill="#D41E14" transform="translate(152,156)"/>
<path d="M0 0 C1.32 0 2.64 0 4 0 C4 2.97 4 5.94 4 9 C3.34 9 2.68 9 2 9 C0.50178941 5.62902617 0 3.79557881 0 0 Z " fill="#281E1B" transform="translate(82,152)"/>
<path d="M0 0 C-1.12073862 0.83905565 -2.24674547 1.67107831 -3.375 2.5 C-4.00148437 2.9640625 -4.62796875 3.428125 -5.2734375 3.90625 C-7 5 -7 5 -9 5 C-9 5.66 -9 6.32 -9 7 C-9.99 7.33 -10.98 7.66 -12 8 C-11.34 6.68 -10.68 5.36 -10 4 C-9.34 4 -8.68 4 -8 4 C-8 3.34 -8 2.68 -8 2 C-7.34 2 -6.68 2 -6 2 C-6 1.34 -6 0.68 -6 0 C-3.50907189 -1.24546405 -2.58919267 -0.7767578 0 0 Z " fill="#F4C067" transform="translate(137,133)"/>
<path d="M0 0 C1.22589844 0.15275391 1.22589844 0.15275391 2.4765625 0.30859375 C3.41628906 0.43427734 3.41628906 0.43427734 4.375 0.5625 C4.375 1.5525 4.375 2.5425 4.375 3.5625 C2.38932292 3.23697917 0.40364583 2.91145833 -1.58203125 2.5859375 C-3.94255824 2.36672152 -3.94255824 2.36672152 -6.625 4.5625 C-6.625 3.2425 -6.625 1.9225 -6.625 0.5625 C-4.10446405 -0.69776798 -2.7707902 -0.35624445 0 0 Z " fill="#FEFADF" transform="translate(65.625,85.4375)"/>
<path d="M0 0 C3.47196006 2.68287823 4.0949599 5.82289183 5 10 C5.07403678 12.33215844 5.09515886 14.66860788 5 17 C4.67 17 4.34 17 4 17 C4 15.02 4 13.04 4 11 C3.34 11 2.68 11 2 11 C0.80712589 7.12315913 0 4.08378077 0 0 Z " fill="#F06319" transform="translate(33,75)"/>
<path d="M0 0 C4.85967024 2.50346649 8.27856704 6.08552441 12 10 C11.67 10.66 11.34 11.32 11 12 C6.72390553 9.43434332 4.36540819 7.37600515 2 3 C1.34 2.67 0.68 2.34 0 2 C0 1.34 0 0.68 0 0 Z " fill="#E26B60" transform="translate(157,22)"/>
<path d="M0 0 C0.99 0.33 1.98 0.66 3 1 C3 1.66 3 2.32 3 3 C3.99 3.33 4.98 3.66 6 4 C6.73046875 6.06640625 6.73046875 6.06640625 7.1875 8.5625 C7.34605469 9.38878906 7.50460938 10.21507812 7.66796875 11.06640625 C7.77753906 11.70449219 7.88710937 12.34257812 8 13 C5.19250745 11.59625372 5.15755283 9.89388208 4 7 C2.68457624 4.98817543 1.3540932 2.98600337 0 1 C0 0.67 0 0.34 0 0 Z " fill="#F5C36B" transform="translate(117,126)"/>
<path d="M0 0 C0.66 0 1.32 0 2 0 C2.35233161 5.37305699 2.35233161 5.37305699 2 8 C0 10 0 10 -2 11 C-1.125 3.375 -1.125 3.375 0 0 Z " fill="#F57616" transform="translate(33,98)"/>
<path d="M0 0 C1.875 0.625 1.875 0.625 4 2 C5.25 5.125 5.25 5.125 6 8 C4.125 7.75 4.125 7.75 2 7 C0.27898465 4.41847698 0 3.15081975 0 0 Z " fill="#D44138" transform="translate(177,47)"/>
<path d="M0 0 C-0.33 1.32 -0.66 2.64 -1 4 C-1.66 4 -2.32 4 -3 4 C-3 4.66 -3 5.32 -3 6 C-4.98 6.66 -6.96 7.32 -9 8 C-8.67 7.01 -8.34 6.02 -8 5 C-7.01 5 -6.02 5 -5 5 C-4.814375 4.0409375 -4.814375 4.0409375 -4.625 3.0625 C-4.41875 2.381875 -4.2125 1.70125 -4 1 C-2 0 -2 0 0 0 Z " fill="#D7362C" transform="translate(53,10)"/>
<path d="M0 0 C2.3125 0.5 2.3125 0.5 5 2 C6.34219295 4.5690412 7.20425705 7.21813439 8 10 C7.01 9.67 6.02 9.34 5 9 C3.8125 6.4375 3.8125 6.4375 3 4 C2.34 4 1.68 4 1 4 C0.67 2.68 0.34 1.36 0 0 Z " fill="#DB160F" transform="translate(43,158)"/>
<path d="M0 0 C2.97 0.33 5.94 0.66 9 1 C8.67 2.98 8.34 4.96 8 7 C4.46399535 5.08864614 2.21027154 3.37357234 0 0 Z " fill="#F3B852" transform="translate(59,134)"/>
<path d="M0 0 C4.13621084 3.3810038 7.81316569 6.66590534 11 11 C9.66666667 10.33333333 8.33333333 9.66666667 7 9 C6.319375 8.731875 5.63875 8.46375 4.9375 8.1875 C2.32195537 6.58442426 1.3560945 4.71218901 0 2 C0 1.34 0 0.68 0 0 Z " fill="#F06719" transform="translate(55,41)"/>
<path d="M0 0 C2.94586829 4.41880243 3.0985616 6.67767339 3 12 C1 11 1 11 0 8 C-0.12781786 5.32605036 -0.04391871 2.67904143 0 0 Z " fill="#D64238" transform="translate(183,55)"/>
<path d="M0 0 C2.4375 1.1875 2.4375 1.1875 5 3 C5.8125 5.6875 5.8125 5.6875 6 8 C3.5625 7.375 3.5625 7.375 1 6 C0.1875 2.875 0.1875 2.875 0 0 Z " fill="#D7352D" transform="translate(152,18)"/>
<path d="M0 0 C0 1.33333333 0 2.66666667 0 4 C3.3 4.33 6.6 4.66 10 5 C10 5.33 10 5.66 10 6 C5.71 6 1.42 6 -3 6 C-1 1 -1 1 0 0 Z " fill="#874E31" transform="translate(114,111)"/>
<path d="M0 0 C2.5 1.8125 2.5 1.8125 5 4 C5 4.99 5 5.98 5 7 C3.68 6.67 2.36 6.34 1 6 C0.67 4.02 0.34 2.04 0 0 Z " fill="#FEF7D3" transform="translate(114,124)"/>
<path d="M0 0 C0.33 0.66 0.66 1.32 1 2 C1.66 2 2.32 2 3 2 C3.33 5.3 3.66 8.6 4 12 C2.09681116 9.14521674 1.5380901 7.58058692 0.875 4.3125 C0.70742188 3.50425781 0.53984375 2.69601563 0.3671875 1.86328125 C0.24601563 1.24839844 0.12484375 0.63351563 0 0 Z " fill="#DB5E52" transform="translate(3,120)"/>
<path d="M0 0 C1.65 0 3.3 0 5 0 C2.63404067 2.61500768 0.13950774 4.38999603 -3 6 C-3.66 5.67 -4.32 5.34 -5 5 C-4.01 4.67 -3.02 4.34 -2 4 C-2 3.34 -2 2.68 -2 2 C-1.34 2 -0.68 2 0 2 C0 1.34 0 0.68 0 0 Z " fill="#DD665B" transform="translate(144,176)"/>
<path d="M0 0 C2.31 0 4.62 0 7 0 C7 0.66 7 1.32 7 2 C6.01 2.33 5.02 2.66 4 3 C4.33 3.66 4.66 4.32 5 5 C3.0625 4.1875 3.0625 4.1875 1 3 C0.67 2.01 0.34 1.02 0 0 Z " fill="#F5A51A" transform="translate(111,118)"/>
<path d="M0 0 C-1.0625 1.5 -1.0625 1.5 -3 3 C-6.6875 3.1875 -6.6875 3.1875 -10 3 C-3.94594595 -1.97297297 -3.94594595 -1.97297297 0 0 Z " fill="#A86C35" transform="translate(134,113)"/>
<path d="M0 0 C2.31 0.66 4.62 1.32 7 2 C7 2.66 7 3.32 7 4 C7.66 4.33 8.32 4.66 9 5 C5.625 4.75 5.625 4.75 2 4 C0.5625 1.9375 0.5625 1.9375 0 0 Z " fill="#D84C40" transform="translate(127,5)"/>
<path d="M0 0 C3.3 1.65 6.6 3.3 10 5 C9.01 5.66 8.02 6.32 7 7 C6.67 6.34 6.34 5.68 6 5 C4.02111039 4.27306096 2.02045442 3.60183749 0 3 C0 2.01 0 1.02 0 0 Z " fill="#D74B40" transform="translate(57,167)"/>
<path d="M0 0 C0.66 0 1.32 0 2 0 C1.6875 2.375 1.6875 2.375 1 5 C0.01 5.66 -0.98 6.32 -2 7 C-2.125 4.625 -2.125 4.625 -2 2 C-1.34 1.34 -0.68 0.68 0 0 Z " fill="#DA483D" transform="translate(167,156)"/>
<path d="M0 0 C2.97 0 5.94 0 9 0 C8.34 2.31 7.68 4.62 7 7 C6.34 6.67 5.68 6.34 5 6 C5.33 4.35 5.66 2.7 6 1 C4.02 1 2.04 1 0 1 C0 0.67 0 0.34 0 0 Z " fill="#EED8D4" transform="translate(109,150)"/>
<path d="M0 0 C1.41623216 -0.05447047 2.83308191 -0.09300508 4.25 -0.125 C5.03890625 -0.14820313 5.8278125 -0.17140625 6.640625 -0.1953125 C9.20731941 0.0171622 10.7916067 0.71345895 13 2 C10.69 2.66 8.38 3.32 6 4 C6 3.01 6 2.02 6 1 C4.02 1 2.04 1 0 1 C0 0.67 0 0.34 0 0 Z " fill="#FA7F16" transform="translate(102,53)"/>
<path d="M0 0 C0.99 0 1.98 0 3 0 C2.43628586 3.26954202 1.50037734 4.82575883 -1 7 C-1.04254356 5.00045254 -1.04080783 2.99958364 -1 1 C-0.67 0.67 -0.34 0.34 0 0 Z " fill="#D3332A" transform="translate(12,48)"/>
<path d="M0 0 C2.97 0 5.94 0 9 0 C5.81237635 2.12508244 3.73487777 2.5020163 0 3 C0 2.01 0 1.02 0 0 Z " fill="#D72216" transform="translate(103,189)"/>
<path d="M0 0 C0.33 0.99 0.66 1.98 1 3 C-5.625 3.25 -5.625 3.25 -9 1 C-2.25 0 -2.25 0 0 0 Z " fill="#F8DEDA" transform="translate(90,176)"/>
<path d="M0 0 C1.32 0.33 2.64 0.66 4 1 C2.35 2.65 0.7 4.3 -1 6 C-1.66 4.68 -2.32 3.36 -3 2 C-1.68 2.33 -0.36 2.66 1 3 C0.67 2.01 0.34 1.02 0 0 Z " fill="#F6D4CF" transform="translate(147,154)"/>
<path d="M0 0 C1.98 0.495 1.98 0.495 4 1 C4 2.32 4 3.64 4 5 C2.68 4.67 1.36 4.34 0 4 C0 2.68 0 1.36 0 0 Z " fill="#F7DAD6" transform="translate(42,152)"/>
<path d="M0 0 C1.98 0 3.96 0 6 0 C6 0.66 6 1.32 6 2 C7.32 2.33 8.64 2.66 10 3 C3.375 3.125 3.375 3.125 0 2 C0 1.34 0 0.68 0 0 Z " fill="#FEFAE4" transform="translate(120,92)"/>
<path d="M0 0 C0.99928333 2.698065 1.03624754 3.88010429 0.1875 6.6875 C-1 9 -1 9 -3 10 C-2.49287967 6.28111761 -1.88391785 3.26545761 0 0 Z " fill="#DA594D" transform="translate(163,134)"/>
<path d="M0 0 C2.97 0.99 5.94 1.98 9 3 C9 3.33 9 3.66 9 4 C2.25 3.125 2.25 3.125 0 2 C0 1.34 0 0.68 0 0 Z " fill="#FEEEBD" transform="translate(48,130)"/>
<path d="M0 0 C1.4540625 0.0309375 1.4540625 0.0309375 2.9375 0.0625 C2.6075 0.7225 2.2775 1.3825 1.9375 2.0625 C-0.0625 2.39583333 -2.0625 2.72916667 -4.0625 3.0625 C-4.3925 3.7225 -4.7225 4.3825 -5.0625 5.0625 C-3.9375 0.08035714 -3.9375 0.08035714 0 0 Z " fill="#F4A61B" transform="translate(135.0625,129.9375)"/>
<path d="M0 0 C-0.33 0.66 -0.66 1.32 -1 2 C-4.64473199 2.89093449 -7.42742531 3.23666047 -11 2 C-7.17679443 0.57741188 -4.08718695 -0.24042276 0 0 Z " fill="#F87B17" transform="translate(159,30)"/>
</svg>
